<svg viewBox="1 -22 511.99904 511" xmlns="http://www.w3.org/2000/svg"><path d="m501.753906 280.445312c0-82.824218-71.617187-149.972656-159.96875-149.972656-1.101562 0-2.203125.011719-3.292968.03125l-153.488282 179.683594.011719.222656c14.804687 68.464844 79.371094 120.003906 156.769531 120.003906 15.066406 0 29.640625-1.949218 43.46875-5.597656 14.429688 16.976563 34.125 29.035156 56.511719 33.523438l-5.890625-60.898438c36.511719-27.484375 65.878906-69.6875 65.878906-116.996094zm0 0" fill="#6accbe"/><path d="m338.492188 130.503906c20.957031 97.066406-64.628907 179.933594-162.777344 179.933594-15.066406 0-35.640625-1.949219-49.460938-5.597656-14.4375 16.976562-34.132812 29.035156-56.515625 33.523437l-.101562-60.898437c-36.511719-27.484375-59.886719-69.6875-59.886719-116.996094 0-82.824219 77.613281-149.972656 165.964844-149.972656 85.804687 0 148.175781 52.542968 162.777344 120.007812zm0 0" fill="#a8ebfa"/><path d="m421.917969 220.457031c-5.519531 0-10 4.480469-10 9.996094 0 5.519531 4.480469 10 10 10s9.996093-4.480469 9.996093-10c0-5.515625-4.476562-9.996094-9.996093-9.996094zm0 0"/><path d="m89.984375 120.476562c5.515625 0 9.996094-4.480468 9.996094-10 0-5.515624-4.480469-9.996093-9.996094-9.996093-5.519531 0-10 4.480469-10 9.996093 0 5.519532 4.480469 10 10 10zm0 0"/><path d="m346.566406 120.535156c-18.871094-69.074218-84.269531-120.035156-170.601562-120.035156-91.4375 0-175.964844 69.421875-175.964844 159.96875 0 47.253906 21.867188 91.40625 59.996094 121.898438l.09375 56.011718c.003906 2.992188 1.25 5.828125 3.566406 7.722656 2.289062 1.875 5.328125 2.660157 8.296875 2.0625 21.972656-4.40625 42.359375-15.769531 58.023437-32.238281 14.773438 3.101563 33.097657 4.511719 45.988282 4.511719.492187 0 .980468-.015625 1.46875-.019531 19.285156 70.371093 86.882812 119.996093 164.597656 119.996093 13.550781 0 26.992188-1.5 40.046875-4.464843 15.644531 16.441406 36.011719 27.789062 57.96875 32.191406 3.078125.617187 6.296875-.242187 8.667969-2.382813 2.347656-2.121093 3.554687-5.230468 3.25-8.382812l-5.359375-55.40625c37.6875-30.035156 65.394531-73.644531 65.394531-121.523438 0-86.78125-73.800781-157.640624-165.433594-159.910156zm-217.507812 174.640625c-3.71875-.980469-7.675782.257813-10.167969 3.1875-10.484375 12.328125-24.011719 21.621094-38.929687 26.898438l-.078126-47.8125c-.003906-3.136719-1.476562-6.085938-3.984374-7.972657-35.527344-26.742187-55.902344-66.472656-55.902344-109.007812 0-75.875 71.425781-139.972656 155.96875-139.972656 80.585937 0 139.285156 48.75 153.007812 112.121094 18.894532 87.515624-55.761718 162.871093-144.269531 167.589843-2.824219.15625-5.765625.234375-8.738281.234375-15.875 0-35.164063-2.167968-46.90625-5.265625zm301.054687 94.277344c-2.78125 2.09375-4.277343 5.484375-3.941406 8.949219l4.480469 46.335937c-14.367188-5.355469-27.378906-14.453125-37.527344-26.394531-2.496094-2.933594-6.453125-4.171875-10.171875-3.191406-13.246094 3.492187-27.011719 5.265625-40.921875 5.265625-67.101562 0-125.917969-41.976563-144.152344-101.28125 28.507813-3.382813 55.679688-13.257813 79.332032-28.691407h144.707031c5.519531 0 9.996093-4.480468 9.996093-10 0-5.519531-4.476562-9.996093-9.996093-9.996093h-119.351563c9.753906-9.230469 18.167969-19.296875 25.140625-29.996094h54.21875c5.519531 0 9.996094-4.476563 9.996094-9.996094 0-5.523437-4.476563-10-9.996094-10h-43.191406c11.242187-24.566406 15.609375-51.421875 11.90625-79.746093 78.703125 4.175781 141.363281 65.25 141.363281 139.734374 0 39.085938-23.136718 79.839844-61.890625 109.007813zm0 0"/><path d="m129.976562 120.476562h131.972657c5.519531 0 9.996093-4.476562 9.996093-10 0-5.519531-4.476562-9.996093-9.996093-9.996093h-131.972657c-5.523437 0-10 4.476562-10 9.996093 0 5.523438 4.476563 10 10 10zm0 0"/><path d="m89.984375 170.464844h171.964844c5.519531 0 9.996093-4.476563 9.996093-9.996094s-4.476562-10-9.996093-10h-171.964844c-5.523437 0-10 4.480469-10 10s4.476563 9.996094 10 9.996094zm0 0"/><path d="m271.945312 210.457031c0-5.519531-4.476562-9.996093-9.996093-9.996093h-171.964844c-5.523437 0-10 4.476562-10 9.996093 0 5.523438 4.476563 10 10 10h171.964844c5.519531 0 9.996093-4.476562 9.996093-10zm0 0"/><path d="m421.917969 320.4375h-159.96875c-5.519531 0-10 4.476562-10 9.996094 0 5.523437 4.480469 10 10 10h159.96875c5.519531 0 9.996093-4.476563 9.996093-10 0-5.519532-4.476562-9.996094-9.996093-9.996094zm0 0"/></svg>