<?xml version="1.0" encoding="iso-8859-1"?>
<!-- Generator: Adobe Illustrator 19.0.0, SVG Export Plug-In . SVG Version: 6.00 Build 0)  -->
<svg version="1.1" id="Capa_1" xmlns="http://www.w3.org/2000/svg" xmlns:xlink="http://www.w3.org/1999/xlink" x="0px" y="0px"
	 viewBox="0 0 511.998 511.998" style="enable-background:new 0 0 511.998 511.998;" xml:space="preserve">
<g>
	<path style="fill:#D8D8E7;" d="M361.597,313.031c47.01-27.991,81.979-74.094,95.264-128.688c3.823-15.715,5.85-32.134,5.85-49.028
		H49.288c0,16.893,2.026,33.313,5.851,49.028c13.674,56.201,50.327,103.404,99.442,131.111
		c11.151-11.253,24.202-25.099,23.965-43.605c27.375,23.598,38.798,42.647,40.499,57.134c1.738-14.436,12.953-33.422,39.631-57.01
		c27.106,23.367,38.572,42.273,40.446,56.707c1.489-14.508,12.639-33.696,39.694-57.616
		C341.588,290.105,352.042,303.023,361.597,313.031z"/>
	<g>
		<path style="fill:#FF7E40;" d="M219.045,328.983c-1.701-14.488-13.124-33.536-40.499-57.134
			c0.237,18.507-12.813,32.353-23.965,43.605c-8.985,9.068-16.738,16.451-15.313,23.234h79.395c0.146-0.682,0.267-1.378,0.361-2.089
			C218.727,334.219,218.721,331.681,219.045,328.983z"/>
		<path style="fill:#FF7E40;" d="M258.676,271.973c-26.678,23.587-37.893,42.575-39.631,57.01c0.316,2.697,0.297,5.236-0.021,7.616
			c0.089,0.711,0.204,1.407,0.344,2.089h79.451c0.175-0.836,0.313-1.693,0.409-2.571c-0.328-2.325-0.377-4.804-0.106-7.437
			C297.248,314.246,285.782,295.34,258.676,271.973z"/>
		<path style="fill:#FF7E40;" d="M338.816,271.064c-27.056,23.92-38.205,43.108-39.694,57.616c0.341,2.627,0.364,5.106,0.106,7.437
			c0.125,0.879,0.289,1.736,0.491,2.571h79.043c1.931-7.825-7.12-15.132-17.166-25.657
			C352.042,303.023,341.588,290.105,338.816,271.064z"/>
	</g>
	<path style="fill:#00BAF7;" d="M378.763,338.688H299.72h-0.9h-79.451h-0.705h-79.395H75.915c-9.645,0-17.536,7.891-17.536,17.536
		v109.451c0,9.645,7.892,17.536,17.536,17.536h360.169c9.645,0,17.536-7.891,17.536-17.536V356.224
		c0-9.645-7.891-17.536-17.536-17.536H378.763L378.763,338.688z M256,375.494c19.581,0,35.455,15.874,35.455,35.456
		c0,19.581-15.874,35.455-35.455,35.455c-19.582,0-35.456-15.874-35.456-35.455C220.544,391.368,236.418,375.494,256,375.494z"/>
	<circle style="fill:#E63A3B;" cx="256" cy="410.95" r="35.456"/>
	<g>
		<path style="fill:#F0F0F0;" d="M55.139,184.343c-3.824-15.715-5.851-32.135-5.851-49.028H10v49.028H55.139z"/>
		<path style="fill:#F0F0F0;" d="M462.711,135.315c0,16.894-2.027,33.313-5.85,49.028H502v-49.028H462.711z"/>
	</g>
</g>
<path d="M256,365.494c-21.628,0-39.765,15.188-44.334,35.456h-4.136c-5.523,0-10,4.477-10,10s4.477,10,10,10h4.136
	c4.57,20.267,22.706,35.455,44.334,35.455c25.065,0,45.455-20.391,45.455-45.455C301.455,385.885,281.065,365.494,256,365.494z
	 M256,436.405c-14.036,0-25.456-11.419-25.456-25.455s11.42-25.456,25.456-25.456c14.036,0,25.455,11.419,25.455,25.456
	S270.036,436.405,256,436.405z"/>
<path d="M501.999,125.315H10c-5.523,0-10,4.477-10,10v49.028c0,5.523,4.477,10,10,10h37.521
	c14.272,50.235,46.438,94.333,91.171,123.184c-3.252,3.641-6.02,7.313-7.738,11.161H75.915c-15.184,0-27.536,12.353-27.536,27.536
	v109.451c0,15.184,12.353,27.536,27.536,27.536h360.169c15.184,0,27.536-12.353,27.536-27.536V356.224
	c0-15.184-12.352-27.536-27.536-27.536h-48.639c-2.046-4.887-5.829-9.365-10.103-13.841c27.016-18.299,49.741-42.572,66.16-70.826
	c9.089-15.639,16.135-32.345,21.03-49.678h37.466c5.523,0,10-4.477,10-10v-49.028C511.999,129.792,507.522,125.315,501.999,125.315z
	 M20,174.343v-29.028h19.525c0.455,9.806,1.572,19.501,3.324,29.028H20z M160.372,323.815c0.41-0.413,0.829-0.835,1.248-1.258
	c0.017-0.016,0.032-0.032,0.048-0.049c8.129-8.203,17.865-18.391,23.102-31.261c17.128,17.24,22.671,29.592,24.069,37.44h-53.23
	C157.238,326.972,158.928,325.269,160.372,323.815z M229.262,328.688c1.575-8.712,8.139-22.936,29.5-43.236
	c21.895,20.28,28.59,34.519,30.182,43.236H229.262z M218.718,348.688h0.612c0.021,0,0.043,0,0.065,0h79.395
	c0.013,0,0.025,0.002,0.038,0.002c0.015,0,0.03-0.002,0.045-0.002h79.857c0.013,0,0.026,0.002,0.04,0.002
	c0.02,0,0.038-0.002,0.058-0.002h57.256c4.155,0,7.536,3.381,7.536,7.536v109.451c0,4.155-3.381,7.536-7.536,7.536H75.915
	c-4.155,0-7.536-3.381-7.536-7.536V356.224c0-4.155,3.381-7.536,7.536-7.536 M309.255,328.688
	c1.164-7.98,6.554-20.772,24.347-38.933c6.4,15.7,17.155,26.588,25.572,35.111c1.134,1.148,2.441,2.473,3.727,3.822H309.255z
	 M363.378,300.109c-6.84-8.066-12.794-17.623-14.666-30.485c-0.528-3.634-3.007-6.686-6.456-7.949
	c-3.448-1.265-7.311-0.535-10.063,1.898c-15.036,13.293-26.163,25.893-33.374,37.739c-7.379-11.635-18.587-23.959-33.613-36.912
	c-3.787-3.265-9.405-3.231-13.153,0.083c-14.806,13.09-25.822,25.516-33.041,37.215c-7.373-11.784-18.688-24.279-33.936-37.422
	c-2.979-2.568-7.188-3.152-10.753-1.49c-3.565,1.661-5.826,5.259-5.775,9.192c0.152,11.885-7.305,21.913-15.658,30.85
	c-55.086-33.974-90.055-93.047-93.346-157.512h392.91C449.224,207.807,415.883,265.79,363.378,300.109z M491.999,174.343h-22.822
	c1.746-9.564,2.849-19.263,3.299-29.028h19.523L491.999,174.343L491.999,174.343z"/>
<path d="M160.956,166.014H97.501c-5.522,0-10,4.477-10,10s4.478,10,10,10h63.455c5.522,0,10-4.477,10-10
	C170.956,170.491,166.479,166.014,160.956,166.014z"/>
<path d="M190.339,166.014c-5.522,0-10,4.477-10,10s4.478,10,10,10h0.087c5.522,0,9.957-4.477,9.957-10
	C200.383,170.491,195.861,166.014,190.339,166.014z"/>
<path d="M169.304,90.08c-4.284,3.486-4.931,9.784-1.445,14.068c1.977,2.429,4.857,3.689,7.763,3.689
	c2.218,0,4.451-0.735,6.306-2.244c24.11-19.619,14.089-39.005,8.1-50.588c-5.784-11.189-6.347-13.587-0.504-18.676
	c4.165-3.627,4.601-9.943,0.974-14.108c-3.629-4.166-9.944-4.601-14.108-0.974c-18.154,15.81-9.374,32.795-4.128,42.943
	C178.129,75.541,180.807,80.721,169.304,90.08z"/>
<path d="M246.197,90.08c-4.284,3.486-4.931,9.784-1.445,14.068c1.977,2.429,4.857,3.689,7.763,3.689
	c2.218,0,4.451-0.735,6.306-2.244c24.11-19.619,14.089-39.005,8.101-50.588c-5.784-11.189-6.347-13.587-0.504-18.676
	c4.165-3.627,4.601-9.943,0.974-14.108c-3.628-4.166-9.944-4.601-14.108-0.974c-18.154,15.81-9.374,32.795-4.128,42.943
	C255.023,75.541,257.7,80.721,246.197,90.08z"/>
<path d="M318.586,90.08c-4.284,3.486-4.931,9.785-1.445,14.068c1.977,2.429,4.857,3.689,7.763,3.689
	c2.218,0,4.451-0.735,6.306-2.244c24.11-19.619,14.088-39.005,8.1-50.588c-5.784-11.189-6.347-13.587-0.504-18.676
	c4.165-3.627,4.601-9.944,0.974-14.108c-3.628-4.166-9.943-4.601-14.108-0.974c-18.154,15.81-9.374,32.795-4.128,42.943
	C327.41,75.541,330.088,80.721,318.586,90.08z"/>
<path d="M373.325,438.468c-5.522,0-10,4.478-10,10c0,5.523,4.477,10,10,10h43.454c5.522,0,10-4.478,10-10c0-5.523-4.477-10-10-10
	H373.325z"/>
<path d="M343.942,438.468h-0.087c-5.522,0-9.957,4.477-9.957,10s4.521,10,10.044,10c5.522,0,10-4.477,10-10
	C353.942,442.946,349.465,438.468,343.942,438.468z"/>
<g>
</g>
<g>
</g>
<g>
</g>
<g>
</g>
<g>
</g>
<g>
</g>
<g>
</g>
<g>
</g>
<g>
</g>
<g>
</g>
<g>
</g>
<g>
</g>
<g>
</g>
<g>
</g>
<g>
</g>
</svg>
