<?xml version="1.0" encoding="iso-8859-1"?>
<!-- Generator: Adobe Illustrator 19.0.0, SVG Export Plug-In . SVG Version: 6.00 Build 0)  -->
<svg version="1.1" id="Layer_1" xmlns="http://www.w3.org/2000/svg" xmlns:xlink="http://www.w3.org/1999/xlink" x="0px" y="0px"
	 viewBox="0 0 512 512" style="enable-background:new 0 0 512 512;" xml:space="preserve">
<path style="fill:#F9CF70;" d="M418.922,460.583c0,23.493-19.049,42.53-42.53,42.53H134.962c-23.493,0-42.53-19.037-42.53-42.53
	V177.42c0-23.493,19.037-42.53,42.53-42.53h8.383v-30.685h224.652v30.685h8.395c23.48,0,42.53,19.037,42.53,42.53V460.583z"/>
<path style="fill:#EABB5E;" d="M142.529,460.583V177.42c0-23.493,19.037-42.53,42.53-42.53h8.383v-30.685h-50.097v30.685h-8.383
	c-23.493,0-42.53,19.037-42.53,42.53v283.162c0,23.493,19.037,42.53,42.53,42.53h50.097
	C161.566,503.112,142.529,484.075,142.529,460.583z"/>
<path style="fill:#FCE4B1;" d="M339.975,460.583V177.42c0-23.493-19.037-42.53-42.53-42.53h-8.383v-30.685h50.097v30.685h8.383
	c23.493,0,42.53,19.037,42.53,42.53v283.162c0,23.493-19.037,42.53-42.53,42.53h-50.097
	C320.938,503.112,339.975,484.075,339.975,460.583z"/>
<path style="fill:#5BBAF4;" d="M392.422,40.38v63.825h-24.425H143.345H118.92V40.38V29.309c0-10.924,8.862-19.786,19.786-19.786
	h233.931c10.936,0,19.786,8.862,19.786,19.786V40.38z"/>
<path style="fill:#3CA8D3;" d="M170.471,29.309c0-10.924,8.862-19.786,19.786-19.786h-51.551c-10.924,0-19.786,8.862-19.786,19.786
	V40.38v63.825h24.425h27.126V40.38V29.309z"/>
<path style="fill:#93D7F9;" d="M303.178,29.309c0-10.924-8.862-19.786-19.786-19.786h51.551c10.924,0,19.786,8.862,19.786,19.786
	V40.38v63.825h-24.425h-27.126V40.38L303.178,29.309L303.178,29.309z"/>
<polygon style="fill:#ED5343;" points="335.557,267.819 335.557,338.272 290.904,338.272 290.904,382.925 220.451,382.925 
	220.451,338.272 175.785,338.272 175.785,267.819 220.451,267.819 220.451,223.166 290.904,223.166 290.904,267.819 "/>
<path d="M377.525,125.388v-12.295h15.22c5.085,0,9.206-4.122,9.206-9.206V28.991C401.951,13.006,388.946,0,372.959,0H139.028
	c-15.986,0-28.991,13.006-28.991,28.991v74.896c0,5.084,4.122,9.206,9.206,9.206h15.22v12.295
	c-28.148,0.443-50.913,23.463-50.913,51.714v23.16c0,5.084,4.122,9.206,9.206,9.206c5.084,0,9.206-4.122,9.206-9.206v-23.16
	c0-18.374,14.949-33.324,33.324-33.324h166.743c5.085,0,9.206-4.122,9.206-9.206c0-5.084-4.12-9.206-9.206-9.206H152.873v-12.274
	h206.241v12.274h-23.333c-5.085,0-9.206,4.122-9.206,9.206c0,5.084,4.12,9.206,9.206,9.206h40.934
	c18.376,0,33.324,14.949,33.324,33.324v273.957h-20.154c-5.085,0-9.206,4.122-9.206,9.206c0,5.084,4.12,9.206,9.206,9.206h18.85
	c-4.005,13.91-16.839,24.119-32.021,24.119H135.285c-15.182,0-28.016-10.208-32.021-24.119h253.481c5.085,0,9.206-4.122,9.206-9.206
	c0-5.084-4.12-9.206-9.206-9.206H101.961V235.241c0-5.084-4.122-9.206-9.206-9.206c-5.084,0-9.206,4.122-9.206,9.206v225.024
	c0,28.527,23.208,51.735,51.735,51.735h241.431c28.527,0,51.735-23.208,51.735-51.735V177.102
	C428.451,148.847,405.68,125.824,377.525,125.388z M128.448,49.268h185.24c5.085,0,9.206-4.122,9.206-9.206s-4.12-9.206-9.206-9.206
	h-185.24v-1.866c0-5.834,4.746-10.58,10.58-10.58h233.931c5.834,0,10.58,4.746,10.58,10.58v1.866h-34.257
	c-5.085,0-9.206,4.122-9.206,9.206s4.12,9.206,9.206,9.206h34.257v45.414H128.448V49.268z"/>
<path d="M291.227,213.642h-70.453c-5.084,0-9.206,4.122-9.206,9.206v35.447h-35.46c-5.084,0-9.206,4.122-9.206,9.206v70.453
	c0,5.084,4.122,9.206,9.206,9.206h35.46v35.447c0,5.084,4.122,9.206,9.206,9.206h70.453c5.085,0,9.206-4.122,9.206-9.206v-35.447
	h35.448c5.085,0,9.206-4.122,9.206-9.206v-70.453c0-5.084-4.12-9.206-9.206-9.206h-35.448v-35.447
	C300.432,217.764,296.312,213.642,291.227,213.642z M326.674,276.706v52.042h-35.447c-5.085,0-9.206,4.122-9.206,9.206v35.448
	h-52.042v-35.448c0-5.084-4.122-9.206-9.206-9.206h-35.46v-52.042h35.46c5.084,0,9.206-4.122,9.206-9.206v-35.447h52.042v35.447
	c0,5.084,4.12,9.206,9.206,9.206H326.674z"/>
<g>
</g>
<g>
</g>
<g>
</g>
<g>
</g>
<g>
</g>
<g>
</g>
<g>
</g>
<g>
</g>
<g>
</g>
<g>
</g>
<g>
</g>
<g>
</g>
<g>
</g>
<g>
</g>
<g>
</g>
</svg>
