<svg viewBox="0 -13 511.99876 511" xmlns="http://www.w3.org/2000/svg"><path d="m155.820312 211.828125h125.09375c19.984376 0 36.339844 16.355469 36.339844 36.339844s-16.355468 36.339843-36.339844 36.339843h98.675782l70.46875-71.234374c11.738281-11.878907 31.070312-11.960938 42.945312-.226563 11.878906 11.761719 11.992188 31.097656.230469 42.972656l-108.628906 109.789063c-10.316407 9.269531-22.589844 17.433594-37.558594 17.433594h-167.472656l-30.53125 53.632812c-48.300781 84.839844-176.515625 11.847656-128.242188-72.996094l65.484375-115.03125c14.652344-25.710937 42.347656-36.765625 69.535156-37.019531zm0 0" fill="#fede94" fill-rule="evenodd"/><path d="m280.914062 36.613281 12.132813-12.132812c18.566406-18.566407 48.925781-18.566407 67.492187 0 18.566407 18.566406 18.566407 48.929687 0 67.46875-26.53125 26.558593-53.09375 53.09375-79.625 79.625-26.535156-26.53125-53.09375-53.066407-79.625-79.625-18.570312-18.539063-18.570312-48.898438 0-67.46875 18.566407-18.566407 48.925782-18.566407 67.464844 0zm0 0" fill="#ef685e" fill-rule="evenodd"/><path d="m280.914062 201.765625c12.753907 0 24.378907 5.214844 32.769532 13.632813 8.417968 8.390624 13.632812 20.011718 13.632812 32.769531 0 9.75-3.03125 18.792969-8.21875 26.277343h56.324219l67.523437-68.289062c7.539063-7.539062 17.828126-11.820312 28.488282-11.875 22.421875-.113281 40.449218 17.773438 40.566406 40.167969.054688 10.148437-4.394531 22.394531-12.164062 29.140625l-108.113282 109.304687c-5.019531 5.046875-13.265625 10.769531-19.589844 14.03125-7.59375 3.882813-15.898437 6.378907-25.085937 6.378907h-32.710937c-5.558594 0-10.0625-4.507813-10.0625-10.066407 0-5.554687 4.503906-10.0625 10.0625-10.0625h32.710937c5.785156 0 11.085937-1.585937 15.960937-4.082031 5.242188-2.691406 10.203126-6.546875 14.851563-10.714844l107.71875-108.878906c4.082031-4.792969 6.4375-8.191406 6.378906-14.96875-.085937-18.226562-22.054687-26.871094-34.78125-14.144531l-69.933593 70.640625c-1.839844 2.183594-4.589844 3.542968-7.652344 3.542968h-166.425782c-5.554687 0-10.0625-4.507812-10.0625-10.0625 0-5.558593 4.507813-10.0625 10.0625-10.0625h67.75c7.199219 0 13.777344-2.949218 18.539063-7.710937 4.792969-4.792969 7.738281-11.339844 7.738281-18.566406 0-7.199219-2.945312-13.777344-7.738281-18.539063-4.761719-4.792968-11.3125-7.738281-18.539063-7.738281l-125.09375-.058594c-12.8125.144531-25.683593 2.921875-36.824218 8.84375-9.691406 5.160157-18.085938 12.757813-23.980469 23.132813l-65.480469 115.03125c-15.023437 26.390625-10.402344 51.335937 3.65625 68.996094 5.585938 7.03125 12.613282 12.984374 20.464844 17.433593 7.882812 4.507813 16.585938 7.539063 25.457031 8.730469 22.367188 3.0625 46.175781-5.667969 61.203125-32.058594l30.160156-52.980468c1.585938-3.402344 5.074219-5.785157 9.097657-5.785157h54.3125c5.527343 0 10.035156 4.507813 10.035156 10.0625 0 5.558594-4.507813 10.066407-10.035156 10.066407h-48.5l-27.640625 48.527343c-19.726563 34.699219-51.421875 46.121094-81.296875 42.066407-11.480469-1.558594-22.621094-5.441407-32.683594-11.167969-10.09375-5.753907-19.136719-13.351563-26.308594-22.394531-18.765625-23.640626-25.113281-56.722657-5.382812-91.390626l65.480469-115.03125c7.90625-13.890624 19.132812-24.039062 32.03125-30.898437 13.777343-7.34375 30.644531-11.253906 46.234374-11.195313zm-72.511718-116.90625c-7.3125-7.3125-10.96875-16.976563-10.96875-26.644531 0-9.667969 3.65625-19.304688 10.96875-26.617188 14.65625-14.65625 38.609375-14.65625 53.265625 0l12.132812 12.132813c3.9375 3.9375 10.289063 3.9375 14.226563 0l12.136718-12.132813c7.3125-7.3125 16.976563-10.972656 26.644532-10.972656 9.667968 0 19.304687 3.65625 26.617187 10.972656 7.316407 7.3125 10.972657 16.949219 10.972657 26.617188 0 9.664062-3.65625 19.332031-10.972657 26.644531l-72.511719 72.515625c-4.703124-4.734375-9.523437-9.414062-14.171874-14.175781-3.941407-3.941407-10.289063-3.941407-14.230469 0-3.886719 3.882812-3.914063 10.148437-.113281 14.089843 7.027343 7.226563 14.257812 14.285157 21.402343 21.402344 3.9375 3.9375 10.289063 3.9375 14.226563 0l79.628906-79.628906c11.222656-11.226562 16.863281-26.050781 16.863281-40.847656s-5.640625-29.59375-16.863281-40.847656c-11.253906-11.253907-26.050781-16.867188-40.847656-16.867188-14.800782 0-29.625 5.613281-40.851563 16.867188l-5.042969 5.042968-5.046874-5.042968c-22.453126-22.453126-59.246094-22.453126-81.695313 0-11.253906 11.253906-16.867187 26.050781-16.867187 40.847656s5.613281 29.621094 16.867187 40.847656c4.449219 4.449219 10.375 6.71875 15.675781 1.445312 5.414063-5.414062 2.863282-11.339843-1.445312-15.648437zm29.878906 29.878906c-3.914062-3.941406-10.292969-3.941406-14.230469 0-3.914062 3.941407-3.914062 10.289063 0 14.230469 3.9375 3.910156 10.316407 3.910156 14.230469 0 3.9375-3.941406 3.9375-10.289062 0-14.230469zm35.828125 258.4375c5.558594 0 10.066406 4.507813 10.066406 10.0625 0 5.558594-4.507812 10.066407-10.066406 10.066407-5.554687 0-10.0625-4.507813-10.0625-10.066407 0-5.554687 4.507813-10.0625 10.0625-10.0625zm0 0"/></svg>