<?xml version="1.0" encoding="iso-8859-1"?>
<!-- Generator: Adobe Illustrator 19.0.0, SVG Export Plug-In . SVG Version: 6.00 Build 0)  -->
<svg version="1.1" id="Capa_1" xmlns="http://www.w3.org/2000/svg" xmlns:xlink="http://www.w3.org/1999/xlink" x="0px" y="0px"
	 viewBox="0 0 511.999 511.999" style="enable-background:new 0 0 511.999 511.999;" xml:space="preserve">
<path style="fill:#00699E;" d="M483.686,399.358L381.887,297.559l-26.78,10.577l-18.111-18.11l18.678-18.678l-30.036-30.036
	L241.31,325.64l30.037,30.036l18.678-18.678l18.111,18.11l-10.578,26.78l101.799,101.799c23.287,23.286,61.043,23.286,84.329,0l0,0
	C506.973,460.4,506.973,422.645,483.686,399.358z"/>
<path style="fill:#919191;" d="M342.428,169.572c-9.804-9.804-16.974-21.242-21.512-33.438L136.134,320.916
	c12.196,4.538,23.635,11.709,33.438,21.512c9.804,9.804,16.974,21.242,21.512,33.438l184.782-184.782
	C363.67,186.546,352.231,179.376,342.428,169.572z"/>
<path d="M313.062,208.938c-0.649,0-1.31-0.06-1.96-0.19c-0.64-0.13-1.26-0.32-1.87-0.57c-0.6-0.25-1.18-0.56-1.72-0.92
	c-0.55-0.37-1.06-0.78-1.53-1.24c-0.46-0.47-0.87-0.98-1.239-1.53c-0.36-0.54-0.671-1.12-0.921-1.72
	c-0.25-0.6-0.439-1.23-0.569-1.87c-0.13-0.65-0.19-1.3-0.19-1.96c0-0.65,0.06-1.3,0.19-1.95c0.13-0.64,0.319-1.27,0.569-1.87
	c0.25-0.6,0.561-1.19,0.921-1.73c0.369-0.55,0.779-1.059,1.239-1.52c0.471-0.46,0.98-0.88,1.53-1.24c0.54-0.36,1.12-0.67,1.72-0.92
	c0.61-0.25,1.23-0.44,1.87-0.57c1.29-0.26,2.62-0.26,3.91,0c0.64,0.13,1.271,0.32,1.87,0.57c0.6,0.25,1.189,0.56,1.73,0.92
	c0.551,0.36,1.06,0.78,1.52,1.24s0.88,0.97,1.24,1.52c0.359,0.54,0.67,1.13,0.92,1.73c0.25,0.6,0.44,1.23,0.569,1.87
	c0.131,0.65,0.2,1.3,0.2,1.95c0,0.66-0.069,1.31-0.2,1.96c-0.13,0.64-0.319,1.27-0.569,1.87c-0.25,0.6-0.56,1.18-0.92,1.72
	c-0.36,0.55-0.78,1.06-1.24,1.53c-0.46,0.46-0.97,0.87-1.52,1.24c-0.54,0.36-1.13,0.67-1.73,0.92c-0.6,0.25-1.23,0.44-1.87,0.57
	C314.373,208.878,313.713,208.938,313.062,208.938z"/>
<polygon style="fill:#919191;" points="10.849,31.521 51.67,104.788 104.787,51.67 31.521,10.849 "/>
<polygon style="fill:#00699E;" points="271.35,355.679 276.247,350.775 271.347,355.676 "/>
<path d="M271.349,365.68c-2.652,0-5.195-1.054-7.071-2.929l-0.003-0.003c-3.905-3.905-3.905-10.238,0-14.144l4.9-4.9
	c3.906-3.904,10.235-3.904,14.142-0.002c3.905,3.903,3.908,10.234,0.006,14.141l-4.897,4.903c-1.875,1.877-4.419,2.932-7.072,2.933
	C271.351,365.68,271.35,365.68,271.349,365.68z"/>
<polygon style="fill:#00699E;" points="355.678,271.35 355.676,271.347 350.775,276.248 "/>
<path d="M350.775,286.248c-2.561,0-5.12-0.977-7.073-2.931c-3.903-3.906-3.902-10.237,0.002-14.142l0.004-0.003l4.897-4.897
	c3.658-3.657,9.501-3.921,13.475-0.611c2.158,1.799,3.462,4.425,3.589,7.233c0.127,2.808-0.933,5.541-2.921,7.527l-4.903,4.897
	C355.891,285.273,353.333,286.248,350.775,286.248z"/>
<path d="M351.655,361.657c-0.649,0-1.31-0.06-1.949-0.19c-0.641-0.13-1.271-0.32-1.87-0.57c-0.61-0.25-1.19-0.56-1.73-0.92
	c-0.55-0.37-1.06-0.79-1.52-1.25s-0.88-0.97-1.24-1.52c-0.36-0.54-0.67-1.12-0.92-1.72c-0.25-0.61-0.44-1.24-0.57-1.87
	c-0.13-0.65-0.2-1.31-0.2-1.96c0-0.65,0.07-1.31,0.2-1.95c0.13-0.64,0.32-1.27,0.57-1.87c0.25-0.61,0.56-1.19,0.92-1.73
	c0.36-0.55,0.78-1.06,1.24-1.52s0.97-0.88,1.52-1.24c0.54-0.36,1.12-0.67,1.73-0.92c0.6-0.25,1.23-0.44,1.87-0.57
	c1.29-0.26,2.619-0.26,3.909,0c0.631,0.13,1.261,0.32,1.87,0.57c0.601,0.25,1.181,0.56,1.721,0.92c0.55,0.36,1.06,0.78,1.52,1.24
	s0.88,0.97,1.25,1.52c0.36,0.54,0.67,1.12,0.92,1.73c0.25,0.6,0.44,1.23,0.57,1.87c0.13,0.64,0.189,1.3,0.189,1.95
	c0,0.65-0.06,1.31-0.189,1.96c-0.13,0.63-0.32,1.26-0.57,1.87c-0.25,0.6-0.56,1.18-0.92,1.72c-0.37,0.55-0.79,1.06-1.25,1.52
	s-0.97,0.88-1.52,1.25c-0.54,0.36-1.12,0.67-1.721,0.92c-0.609,0.25-1.239,0.44-1.87,0.57
	C352.966,361.597,352.306,361.657,351.655,361.657z"/>
<g>
	
		<rect x="47.1" y="130.281" transform="matrix(0.7071 0.7071 -0.7071 0.7071 153.3766 -63.5297)" style="fill:#DBDBDC;" width="212.55" height="46.192"/>
	<path style="fill:#DBDBDC;" d="M13.333,433.383l48.125-48.125l65.284,65.284l-48.125,48.125
		c31.354,8.614,66.319,0.603,90.955-24.033c36.508-36.507,36.508-95.699,0-132.206s-95.699-36.507-132.206,0
		C12.731,367.064,4.719,402.029,13.333,433.383z"/>
</g>
<path style="fill:#BFBFBF;" d="M498.667,78.618l-48.125,48.125l-53.213-12.071l-12.071-53.213l48.125-48.125
	c-31.354-8.614-66.319-0.603-90.955,24.033c-36.508,36.508-36.508,95.699,0,132.206c36.507,36.508,95.699,36.508,132.206,0
	C499.269,144.937,507.281,109.971,498.667,78.618z"/>
<path d="M388.959,290.487c-2.817-2.816-7.037-3.692-10.746-2.229l-20.674,8.165l-6.398-6.398l11.607-11.607
	c3.905-3.905,3.905-10.238,0-14.143l-22.964-22.964l38.801-38.801c9.749,2.93,19.847,4.395,29.946,4.395
	c26.501,0,53.001-10.087,73.175-30.262c26.257-26.258,36.451-64.834,26.605-100.675c-0.943-3.435-3.642-6.107-7.085-7.019
	c-3.44-0.91-7.11,0.077-9.63,2.597l-44.222,44.222l-41.686-9.456l-9.457-41.685l44.224-44.223c2.518-2.519,3.507-6.186,2.596-9.63
	c-0.91-3.443-3.584-6.142-7.018-7.085c-35.841-9.847-74.417,0.348-100.676,26.605c-19.545,19.546-30.311,45.534-30.311,73.174
	c0,10.313,1.499,20.395,4.392,29.999l-64.583,64.583L108.703,61.898l3.155-3.155c2.217-2.217,3.266-5.347,2.833-8.452
	c-0.434-3.106-2.298-5.829-5.037-7.354L36.388,2.112c-3.902-2.175-8.778-1.496-11.939,1.665L3.777,24.45
	c-3.16,3.16-3.84,8.034-1.664,11.939l40.82,73.266c1.526,2.739,4.249,4.604,7.354,5.037c0.461,0.064,0.922,0.096,1.382,0.096
	c2.633,0,5.182-1.041,7.07-2.929l3.156-3.156L198.05,244.856l-64.635,64.635c-35.33-10.618-75.258-1.995-103.121,25.866
	C4.038,361.615-6.157,400.191,3.69,436.032c0.943,3.434,3.642,6.107,7.085,7.018c3.438,0.91,7.11-0.077,9.63-2.597l41.052-41.052
	l51.142,51.141l-41.053,41.053c-2.519,2.519-3.507,6.186-2.596,9.63c0.91,3.443,3.584,6.142,7.018,7.085
	c9.033,2.481,18.233,3.69,27.372,3.689c27.126-0.001,53.663-10.655,73.304-30.294c19.545-19.546,30.311-45.534,30.311-73.174
	c0-10.313-1.499-20.395-4.392-29.999l38.749-38.749l22.965,22.964c1.876,1.876,4.419,2.929,7.071,2.929s5.196-1.054,7.071-2.929
	l11.605-11.606l6.398,6.397l-8.166,20.674c-1.464,3.706-0.588,7.927,2.23,10.746l101.799,101.799
	c13.575,13.574,31.406,20.361,49.236,20.361c17.831,0,35.662-6.787,49.236-20.361c13.151-13.152,20.395-30.638,20.395-49.236
	c0-18.599-7.243-36.085-20.395-49.236L388.959,290.487z M349.499,44.438c15.847-15.847,37.252-24.439,59.142-24.439
	c1.28,0,2.561,0.029,3.844,0.088l-34.3,34.299c-2.429,2.429-3.44,5.934-2.681,9.285l12.071,53.213
	c0.852,3.755,3.784,6.688,7.54,7.54l53.214,12.071c3.351,0.761,6.854-0.253,9.284-2.682l34.299-34.299
	c1.069,23.209-7.578,46.214-24.351,62.986c-15.768,15.768-36.732,24.452-59.03,24.452c-22.299,0-43.265-8.685-59.031-24.452
	c-15.768-15.768-24.452-36.732-24.452-59.031C325.047,81.17,333.73,60.206,349.499,44.438z M53.961,88.353L23.26,33.251l9.991-9.991
	l55.101,30.701L53.961,88.353z M76.041,94.56L94.56,76.041l136.153,136.153l-18.519,18.519L76.041,94.56z M162.5,467.563
	c-16.773,16.773-39.765,25.422-62.986,24.351l34.3-34.299c1.875-1.875,2.929-4.419,2.929-7.071s-1.054-5.196-2.929-7.071
	L68.53,378.189c-3.906-3.905-10.237-3.905-14.144,0l-34.299,34.299c-1.069-23.209,7.578-46.215,24.351-62.987
	c32.55-32.55,85.515-32.549,118.063,0c15.769,15.768,24.452,36.732,24.452,59.031C186.953,430.831,178.268,451.795,162.5,467.563z
	 M194.179,358.627c-3.077-5.574-6.685-10.883-10.8-15.863l109.503-109.503c3.905-3.905,3.905-10.238,0-14.144
	c-3.906-3.905-10.237-3.905-14.144,0L169.233,328.624c-5.02-4.138-10.343-7.73-15.887-10.777l164.475-164.474
	c4.657,8.437,10.534,16.267,17.536,23.27c7.078,7.078,14.936,12.915,23.298,17.51L194.179,358.627z M482.977,468.835l-95.543-95.543
	c-3.905-3.905-10.238-3.905-14.144-0.001c-3.905,3.905-3.905,10.238,0,14.143l95.537,95.537
	c-19.252,12.692-45.47,10.573-62.399-6.355l-97.158-97.159l8.167-20.674c1.464-3.706,0.588-7.927-2.229-10.746l-18.111-18.111
	c-1.876-1.875-4.419-2.929-7.071-2.929s-5.196,1.054-7.071,2.929l-11.606,11.607l-15.894-15.893l70.186-70.185l15.894,15.893
	l-11.607,11.607c-3.905,3.905-3.905,10.238,0,14.143l18.11,18.11c2.818,2.817,7.037,3.693,10.746,2.229l20.674-8.165l97.158,97.159
	c9.375,9.374,14.537,21.836,14.537,35.092C491.152,451.38,488.296,460.798,482.977,468.835z"/>
<g>
</g>
<g>
</g>
<g>
</g>
<g>
</g>
<g>
</g>
<g>
</g>
<g>
</g>
<g>
</g>
<g>
</g>
<g>
</g>
<g>
</g>
<g>
</g>
<g>
</g>
<g>
</g>
<g>
</g>
</svg>
