<?xml version="1.0" encoding="iso-8859-1"?>
<!-- Generator: Adobe Illustrator 19.0.0, SVG Export Plug-In . SVG Version: 6.00 Build 0)  -->
<svg version="1.1" id="Capa_1" xmlns="http://www.w3.org/2000/svg" xmlns:xlink="http://www.w3.org/1999/xlink" x="0px" y="0px"
	 viewBox="0 0 512 512" style="enable-background:new 0 0 512 512;" xml:space="preserve">
<g>
	<path style="fill:#D8D8E7;" d="M62.416,207.462c0,8.662,8.154,15.748,18.122,15.748h113.91c9.968,0,18.122-7.086,18.122-15.748
		v-89.99c0-8.662-8.154-15.748-18.122-15.748H80.538c-9.968,0-18.122,7.086-18.122,15.748V207.462z"/>
	<path style="fill:#F0F0F0;" d="M194.448,223.21H80.538c-9.968,0-18.122-7.086-18.122-15.748v-89.99
		c0-8.662,8.154-15.748,18.122-15.748h113.91c9.968,0,18.122,7.086,18.122,15.748v89.99
		C212.57,216.124,204.416,223.21,194.448,223.21L194.448,223.21z M339.479,20H57.003C31.151,20,10,41.151,10,67.003v377.994
		C10,470.849,31.153,492,57.003,492H399.73l0.001-390.275l-0.001-10.193C399.729,41.783,398.557,20,339.479,20z"/>
	<path style="fill:#D8D8E7;" d="M399.729,101.725V492C451.103,492,502,471.553,502,401.936v-275.19
		c0-13.762-11.29-25.021-25.082-25.021C476.918,101.725,399.729,101.725,399.729,101.725z"/>
</g>
<path d="M476.918,91.725h-67.189v-0.193c0-24.311,0-45.307-9.618-59.919C390.14,16.464,372.007,10,339.479,10H57.003
	C25.571,10,0,35.572,0,67.003v377.994C0,476.428,25.571,502,57.003,502H399.73C471.079,502,512,465.528,512,401.936v-275.19
	C512,107.435,496.263,91.725,476.918,91.725z M20,444.997V67.003C20,46.599,36.6,30,57.003,30H339.48
	c31.577,0,40.063,6.738,43.926,12.608c5.898,8.96,6.324,24.46,6.324,48.923V482H57.003C36.6,482,20,465.4,20,444.997z M492,401.936
	c0,60.997-42.633,77.57-82.271,79.791V111.725h67.189c8.316,0,15.082,6.739,15.082,15.021V401.936z"/>
<path d="M322.966,281.038l-259.521-0.001c-5.522,0-10,4.478-10,10c0,5.523,4.478,10,10,10l259.521,0.001c5.523,0,10-4.477,10-10
	C332.966,285.515,328.488,281.038,322.966,281.038z"/>
<path d="M322.966,340.415l-258.669-0.001c-5.522,0-10,4.478-10,10c0,5.523,4.477,10,10,10l258.669,0.001c5.523,0,10-4.478,10-10
	C332.966,344.892,328.488,340.415,322.966,340.415z"/>
<path d="M322.966,404.394h-0.543c-5.523,0-10,4.477-10,10s4.477,10,10,10h0.543c5.523,0,10-4.477,10-10
	S328.488,404.394,322.966,404.394z"/>
<path d="M291.171,404.394l-227.727-0.001c-5.522,0-10,4.477-10,10s4.478,10,10,10l227.727,0.001c5.522,0,10-4.478,10-10
	C301.171,408.871,296.693,404.394,291.171,404.394z"/>
<path d="M275.028,115.49h43.244c5.522,0,10-4.477,10-10s-4.477-10-10-10l-43.244-0.001c-5.522,0-10,4.478-10,10
	C265.028,111.013,269.505,115.49,275.028,115.49z"/>
<path d="M275.028,171.41l43.244,0.001c5.522,0,10-4.477,10-10c0-5.522-4.477-10-10-10l-43.244-0.001c-5.522,0-10,4.477-10,10
	C265.028,166.932,269.505,171.41,275.028,171.41z"/>
<path d="M273.385,227.879h43.243c5.522,0,10-4.477,10-10s-4.478-10-10-10h-43.243c-5.522,0-10,4.477-10,10
	S267.862,227.879,273.385,227.879z"/>
<path d="M80.538,233.21h113.91c15.507,0,28.122-11.55,28.122-25.748v-89.989c0-14.198-12.615-25.748-28.122-25.748H80.538
	c-15.507,0-28.122,11.55-28.122,25.748v89.989C52.416,221.659,65.031,233.21,80.538,233.21z M72.416,117.473
	c0-2.719,3.336-5.748,8.122-5.748h113.91c4.786,0,8.122,3.029,8.122,5.748v89.989c0,2.718-3.336,5.748-8.122,5.748H80.538
	c-4.786,0-8.122-3.029-8.122-5.748V117.473z"/>
<g>
</g>
<g>
</g>
<g>
</g>
<g>
</g>
<g>
</g>
<g>
</g>
<g>
</g>
<g>
</g>
<g>
</g>
<g>
</g>
<g>
</g>
<g>
</g>
<g>
</g>
<g>
</g>
<g>
</g>
</svg>
