<?xml version="1.0" encoding="iso-8859-1"?>
<!-- Generator: Adobe Illustrator 19.0.0, SVG Export Plug-In . SVG Version: 6.00 Build 0)  -->
<svg version="1.1" id="Capa_1" xmlns="http://www.w3.org/2000/svg" xmlns:xlink="http://www.w3.org/1999/xlink" x="0px" y="0px"
	 viewBox="0 0 512 512" style="enable-background:new 0 0 512 512;" xml:space="preserve">
<g>
	<path style="fill:#FF8346;" d="M304.602,63.99L399.3,228.015l0.095-0.056l95.112,164.738c15.421,26.625,6.337,60.715-20.288,76.136
		c-8.807,5.101-18.43,7.516-27.924,7.508v0.127H256.072H65.847C35.004,476.47,10,451.465,10,420.622
		c0-11.576,3.522-22.328,9.555-31.247l93.192-161.414c0.568-0.982,1.166-1.937,1.783-2.869L207.86,63.44
		c15.299-26.625,49.291-35.807,75.916-20.507C292.826,48.133,299.859,55.495,304.602,63.99z"/>
	<path style="fill:#FFD278;" d="M147.371,247.992L53.485,410.608l-0.797,1.179c-1.785,2.639-2.687,5.653-2.687,8.836
		c0,8.764,7.082,15.847,15.846,15.847h340.449v-0.16l40.034,0.033c2.784,0.002,5.435-0.728,7.843-2.121
		c7.507-4.349,10.069-13.967,5.721-21.475l-0.026-0.047L384.87,282.803l-0.095,0.055L269.815,83.739l-0.142-0.252
		c-1.383-2.478-3.366-4.459-5.826-5.873c-7.479-4.297-17.008-1.723-21.305,5.755l-0.041,0.07l-93.942,162.714l-0.677,1.023
		C147.705,247.444,147.532,247.715,147.371,247.992z"/>
	<g>
		<rect x="230.083" y="180.263" style="fill:#3C5485;" width="51.878" height="145.712"/>
		<rect x="230.083" y="356.495" style="fill:#3C5485;" width="51.878" height="39.974"/>
	</g>
</g>
<path d="M400.549,426.342h-0.475c-5.523,0-10,4.478-10,10c0,5.522,4.477,10,10,10h0.475c5.523,0,10-4.478,10-10
	C410.55,430.82,406.073,426.342,400.549,426.342z"/>
<path d="M468.526,407.7l-74.997-129.897c-0.252-0.437-0.532-0.848-0.836-1.23L278.505,78.789l-0.098-0.174
	c-2.239-4.013-5.55-7.356-9.577-9.672c-12.244-7.034-27.923-2.797-34.924,9.387c-0.008,0.014-0.056,0.097-0.063,0.109
	l-93.791,162.451l-0.493,0.746c-0.289,0.434-0.569,0.878-0.846,1.354l-93.71,162.31l-0.597,0.882
	c-2.882,4.26-4.405,9.253-4.405,14.44c0,14.252,11.594,25.847,25.846,25.847c52.139,0,98.161-0.04,143.8-0.079
	c38.096-0.033,77.177-0.067,119.365-0.075c0.18,0.01,0.358,0.027,0.541,0.027h41.439c5.523,0,10-4.478,10-10
	c0-0.004,0-0.008,0-0.012c0-0.005,0-0.009,0-0.013c0.001-5.523-4.475-10.001-9.998-10.002c-58.799-0.017-110.941,0.03-161.362,0.074
	c-45.634,0.039-91.65,0.079-143.783,0.079c-3.223,0-5.846-2.623-5.846-5.847c0-1.21,0.317-2.268,0.972-3.235l0.797-1.179
	c0.132-0.195,0.257-0.396,0.375-0.601l93.872-162.592c0.06-0.102,0.124-0.2,0.206-0.322l0.677-1.023
	c0.111-0.169,0.218-0.341,0.319-0.516l93.92-162.675c0.011-0.02,0.063-0.108,0.074-0.127c1.54-2.68,4.971-3.607,7.65-2.067
	c0.911,0.523,1.59,1.202,2.092,2.103l0.142,0.252c0.019,0.033,0.038,0.067,0.058,0.101l114.96,199.118
	c0.252,0.436,0.532,0.848,0.837,1.23l74.226,128.561c0.02,0.037,0.041,0.073,0.063,0.109c1.58,2.727,0.646,6.23-2.076,7.808
	c-0.903,0.522-1.826,0.776-2.823,0.776c-0.004,0.001-0.007,0-0.011,0c-5.52,0-9.996,4.473-10,9.993
	c-0.004,5.522,4.47,10.003,9.993,10.007c0.006,0,0.012,0,0.019,0c4.545,0,8.866-1.166,12.844-3.468
	c12.269-7.107,16.468-22.871,9.397-35.077C468.564,407.764,468.546,407.732,468.526,407.7z"/>
<path d="M503.168,387.7L408.056,222.96c-0.249-0.432-0.528-0.841-0.835-1.226L313.298,59.052
	c-5.77-10.31-14.254-18.881-24.539-24.791c-9.94-5.712-21.225-8.731-32.634-8.731c-23.448,0-45.265,12.617-56.925,32.909
	l-93.183,161.397c-0.696,1.063-1.328,2.084-1.93,3.124L11.065,384.079C3.825,394.914,0,407.541,0,420.622
	c0,36.309,29.538,65.848,65.847,65.848h380.448c0.589,0,1.167-0.051,1.728-0.148c10.939-0.283,21.694-3.322,31.207-8.833
	C510.587,459.328,521.322,419.042,503.168,387.7z M469.207,460.182c-6.959,4.03-14.866,6.161-22.904,6.161
	c-0.522-0.037-1.072,0.042-1.597,0.127H65.847C40.567,466.47,20,445.903,20,420.622c0-9.195,2.71-18.064,7.838-25.645
	c0.133-0.196,0.259-0.397,0.377-0.603l93.186-161.402c0.444-0.767,0.925-1.54,1.469-2.362c0.112-0.17,0.219-0.343,0.321-0.519
	l93.339-161.669c8.113-14.12,23.285-22.892,39.594-22.892c7.917,0,15.756,2.101,22.669,6.073
	c7.166,4.117,13.071,10.086,17.076,17.261c0.024,0.042,0.047,0.084,0.072,0.126l94.698,164.025c0.249,0.432,0.528,0.841,0.834,1.226
	l94.38,163.469C498.488,419.524,491.02,447.547,469.207,460.182z"/>
<path d="M291.965,180.259c0-5.523-4.477-10-10-10h-51.878c-5.523,0-10,4.477-10,10c0,5.522,4.477,10,10,10h41.878V315.97h-31.877
	l0,0v-62.11l0,0c0-5.522-4.477-10-10-10s-10,4.478-10,10l0,0v72.11l0,0c0,5.522,4.477,10,10,10h51.878c5.523,0,10-4.478,10-10
	V180.259z"/>
<path d="M281.965,346.495h-51.878c-5.523,0-10,4.478-10,10v39.974c0,5.523,4.477,10,10,10h51.878c5.523,0,10-4.477,10-10v-39.974
	C291.965,350.973,287.488,346.495,281.965,346.495z M271.965,386.469h-31.877v-19.973h31.877V386.469z"/>
<path d="M230.087,234.774c5.523,0,10-4.478,10-10v-0.475c0-5.522-4.477-10-10-10s-10,4.478-10,10v0.475
	C220.087,230.296,224.564,234.774,230.087,234.774z"/>
<g>
</g>
<g>
</g>
<g>
</g>
<g>
</g>
<g>
</g>
<g>
</g>
<g>
</g>
<g>
</g>
<g>
</g>
<g>
</g>
<g>
</g>
<g>
</g>
<g>
</g>
<g>
</g>
<g>
</g>
</svg>
