<?xml version="1.0" encoding="iso-8859-1"?>
<!-- Generator: Adobe Illustrator 19.0.0, SVG Export Plug-In . SVG Version: 6.00 Build 0)  -->
<svg version="1.1" id="Capa_1" xmlns="http://www.w3.org/2000/svg" xmlns:xlink="http://www.w3.org/1999/xlink" x="0px" y="0px"
	 viewBox="0 0 512.002 512.002" style="enable-background:new 0 0 512.002 512.002;" xml:space="preserve">
<polygon style="fill:#FEDA9B;" points="349.959,137.701 198.042,234.67 197.919,234.67 46.002,137.701 46.002,405.033 
	197.919,502.001 198.042,502.001 349.959,405.033 350.082,405.033 501.999,502.001 501.999,234.67 350.082,137.701 "/>
<polygon style="fill:#FFB954;" points="197.919,502.001 198.042,502.001 349.959,405.033 349.959,405.033 349.959,137.701 
	349.959,137.701 198.042,234.67 197.919,234.67 "/>
<path style="fill:#72D8FF;" d="M502,338.534c0-39.949-32.385-72.333-72.333-72.333c-39.949,0-72.333,32.385-72.333,72.333
	c0,17.492,6.209,33.533,16.543,46.04h-0.042l55.833,71.53l56.1-71.906h-0.005C495.911,371.745,502,355.851,502,338.534z
	 M429.667,367.688c-15.464,0-28-12.536-28-28s12.536-28,28-28c15.464,0,28,12.536,28,28S445.131,367.688,429.667,367.688z"/>
<path style="fill:#FF5D5D;" d="M192.001,101c0-50.258-40.742-90.999-90.999-90.999S10.002,50.743,10.002,101
	c0,22.005,7.811,42.186,20.812,57.922h-0.053l70.241,89.988l70.578-90.462h-0.006C184.341,142.782,192.001,122.787,192.001,101z
	 M101.001,150.452c-26.51,0-48-21.49-48-48s21.49-48,48-48s48,21.49,48,48S127.511,150.452,101.001,150.452z"/>
<path d="M350.082,395.033h-0.123c-5.523,0-10,4.477-10,10c0,5.523,4.477,10,10,10h0.123c5.523,0,10-4.477,10-10
	C360.082,399.51,355.605,395.033,350.082,395.033z"/>
<path d="M313.106,416.693l-105.063,67.063V314.002c0-5.523-4.477-10-10-10s-10,4.477-10,10v169.831l-132.041-84.28V256.003
	c0-5.523-4.477-10-10-10s-10,4.477-10,10v149.03c0,3.414,1.742,6.592,4.62,8.429l151.917,96.968c1.607,1.026,3.474,1.571,5.38,1.571
	h0.123c1.907,0,3.773-0.545,5.38-1.571l120.444-76.88c4.655-2.972,6.021-9.154,3.049-13.81
	C323.943,415.086,317.762,413.722,313.106,416.693z"/>
<path d="M198.041,284.712c2.63,0,5.21-1.06,7.07-2.93c1.86-1.86,2.93-4.44,2.93-7.07c0-2.63-1.07-5.21-2.93-7.07
	c-1.86-1.86-4.44-2.93-7.07-2.93s-5.21,1.07-7.07,2.93c-1.86,1.86-2.93,4.44-2.93,7.07c0,2.63,1.07,5.21,2.93,7.07
	C192.831,283.652,195.411,284.712,198.041,284.712z"/>
<path d="M429.667,301.688c-20.953,0-38,17.047-38,38s17.047,38,38,38c20.953,0,38-17.047,38-38S450.62,301.688,429.667,301.688z
	 M429.667,357.688c-9.925,0-18-8.075-18-18s8.075-18,18-18c9.925,0,18,8.075,18,18S439.592,357.688,429.667,357.688z"/>
<path d="M512,338.534c0-0.013-0.001-0.026-0.001-0.038V234.67c0-3.414-1.742-6.592-4.62-8.429l-151.917-96.968
	c-1.607-1.026-3.474-1.571-5.38-1.571h-0.123c-1.907,0-3.773,0.545-5.38,1.571l-146.598,93.573l-42.698-27.254l24.18-30.993
	c0.024-0.031,0.048-0.062,0.072-0.094c14.49-17.901,22.466-40.44,22.466-63.506C202.001,45.309,156.692,0,101.001,0
	S0.002,45.309,0.002,100.999c0,23.238,8.073,45.891,22.744,63.854c1.829,2.467,4.766,4.067,8.068,4.067
	c3.873,0,7.397-2.236,9.047-5.739c1.65-3.503,1.129-7.645-1.337-10.63C26.58,138.096,20.002,119.788,20.002,101
	c0-44.664,36.336-81,81-81s81,36.336,81,81c0,18.587-6.457,36.746-18.18,51.13c-0.112,0.138-0.22,0.278-0.324,0.42l-62.498,80.106
	L79.896,205.62c-3.398-4.354-9.682-5.129-14.036-1.73c-4.354,3.398-5.128,9.682-1.73,14.036l28.987,37.137
	c1.895,2.428,4.804,3.848,7.884,3.847c3.081,0,5.989-1.42,7.883-3.849l34.04-43.631l49.613,31.668
	c1.607,1.026,3.474,1.571,5.38,1.571h0.123c1.907,0,3.773-0.545,5.38-1.571l136.537-87.15v113.925c0,5.523,4.477,10,10,10
	s10-4.477,10-10V155.869l132.04,84.281v44.685c-15.11-17.515-37.44-28.634-62.333-28.634c-45.399,0-82.333,36.935-82.333,82.333
	c0,18.799,6.482,37.13,18.271,51.721c0.111,0.161,0.226,0.318,0.347,0.473l55.833,71.53c1.895,2.428,4.804,3.848,7.884,3.847
	c3.081,0,5.989-1.42,7.883-3.849l54.448-69.789v91.288l-25.897-16.53c-4.655-2.972-10.838-1.607-13.81,3.049
	c-2.972,4.655-1.606,10.838,3.049,13.81l41.278,26.348c1.637,1.044,3.507,1.571,5.381,1.571c1.651,0,3.305-0.409,4.806-1.23
	c3.203-1.755,5.194-5.117,5.194-8.77V338.579C511.999,338.564,512,338.549,512,338.534z M478.01,377.88
	c-0.104,0.127-0.205,0.257-0.301,0.389l-48.044,61.581l-47.431-60.766c-0.199-0.302-0.415-0.596-0.649-0.879
	c-9.19-11.124-14.252-25.213-14.252-39.671c0-34.371,27.963-62.333,62.333-62.333c34.358,0,62.312,27.942,62.333,62.294v0.084
	C491.989,352.867,487.022,366.823,478.01,377.88z"/>
<path d="M45.932,194.483c1.86,1.87,4.44,2.93,7.07,2.93s5.21-1.06,7.07-2.93c1.86-1.86,2.93-4.43,2.93-7.07
	c0-2.63-1.07-5.21-2.93-7.07s-4.44-2.93-7.07-2.93s-5.21,1.07-7.07,2.93c-1.86,1.86-2.93,4.44-2.93,7.07
	C43.002,190.053,44.072,192.623,45.932,194.483z"/>
<path d="M101.001,160.452c31.981,0,58-26.019,58-58s-26.019-58-58-58s-58,26.019-58,58S69.021,160.452,101.001,160.452z
	 M101.001,64.453c20.953,0,38,17.047,38,38s-17.047,38-38,38s-38-17.047-38-38S80.048,64.453,101.001,64.453z"/>
<g>
</g>
<g>
</g>
<g>
</g>
<g>
</g>
<g>
</g>
<g>
</g>
<g>
</g>
<g>
</g>
<g>
</g>
<g>
</g>
<g>
</g>
<g>
</g>
<g>
</g>
<g>
</g>
<g>
</g>
</svg>
