<?xml version="1.0" encoding="iso-8859-1"?>
<!-- Generator: Adobe Illustrator 19.0.0, SVG Export Plug-In . SVG Version: 6.00 Build 0)  -->
<svg version="1.1" id="Capa_1" xmlns="http://www.w3.org/2000/svg" xmlns:xlink="http://www.w3.org/1999/xlink" x="0px" y="0px"
	 viewBox="0 0 512.001 512.001" style="enable-background:new 0 0 512.001 512.001;" xml:space="preserve">
<path style="fill:#8F959B;" d="M267.01,379.424L267.01,379.424c-13.299,0-24.08-10.781-24.08-24.08V130.152
	c0-13.299,10.781-24.08,24.08-24.08l0,0c13.299,0,24.08,10.781,24.08,24.08v225.192C291.091,368.643,280.309,379.424,267.01,379.424
	z"/>
<path style="opacity:0.1;enable-background:new    ;" d="M291.091,355.344v-28.178c-18.816-4.328-38.717-35.753-48.161-68.809
	v96.987c0,13.299,10.781,24.08,24.08,24.08C280.309,379.424,291.091,368.643,291.091,355.344z"/>
<path style="fill:#7E9EDC;" d="M403.587,133.872L403.587,133.872c-1.456,3.737-6.745,3.737-8.201,0l0,0
	c-4.849-12.443-14.69-22.284-27.133-27.133l0,0c-3.737-1.456-3.737-6.745,0-8.201l0,0c12.443-4.849,22.284-14.69,27.133-27.133l0,0
	c1.456-3.737,6.745-3.737,8.201,0l0,0c4.849,12.443,14.69,22.284,27.133,27.133l0,0c3.737,1.456,3.737,6.745,0,8.201l0,0
	C418.277,111.588,408.435,121.429,403.587,133.872z"/>
<path style="fill:#98D2E6;" d="M129.711,250.83L129.711,250.83c-1.456,3.737-6.745,3.737-8.201,0l0,0
	c-4.849-12.443-14.69-22.284-27.133-27.133l0,0c-3.737-1.456-3.737-6.745,0-8.201l0,0c12.443-4.849,22.284-14.69,27.133-27.133l0,0
	c1.456-3.737,6.745-3.737,8.201,0l0,0c4.849,12.443,14.69,22.284,27.133,27.133l0,0c3.737,1.456,3.737,6.745,0,8.201l0,0
	C144.401,228.546,134.56,238.387,129.711,250.83z"/>
<path style="fill:#F3BB62;" d="M129.692,102.013L129.692,102.013c-2.109,5.412-9.766,5.412-11.875,0l0,0
	c-7.021-18.017-21.271-32.268-39.289-39.289l0,0c-5.412-2.109-5.412-9.766,0-11.875l0,0c18.018-7.021,32.268-21.271,39.289-39.289
	l0,0c2.109-5.412,9.766-5.412,11.875,0l0,0c7.021,18.018,21.271,32.268,39.289,39.289l0,0c5.412,2.109,5.412,9.766,0,11.875l0,0
	C150.963,69.745,136.713,83.995,129.692,102.013z"/>
<path style="fill:#F895C6;" d="M401.296,271.541L401.296,271.541c-1.763,4.524-8.164,4.524-9.926,0l0,0
	c-5.869-15.061-17.781-26.973-32.842-32.842l0,0c-4.524-1.763-4.524-8.164,0-9.926l0,0c15.061-5.869,26.973-17.781,32.842-32.842
	l0,0c1.763-4.524,8.164-4.524,9.926,0l0,0c5.869,15.061,17.781,26.973,32.842,32.842l0,0c4.524,1.763,4.524,8.164,0,9.926l0,0
	C419.077,244.568,407.165,256.48,401.296,271.541z"/>
<path style="fill:#F3BB62;" d="M291.091,130.151c0-13.299-10.781-24.08-24.08-24.08c-13.299,0-24.08,10.781-24.08,24.08v44.95
	c2.818-1.173,5.927-2.431,8.701-3.539c5.044-2.016,10.765-1.35,15.216,1.764l0,0c4.87,3.407,11.213,3.861,16.516,1.177
	c2.352-1.19,5.007-2.54,7.728-3.935v-40.417H291.091z"/>
<path d="M110.828,104.736c2.093,5.367,7.167,8.835,12.928,8.835c5.76-0.001,10.833-3.469,12.924-8.835
	c6.242-16.018,19.008-28.784,35.023-35.024c5.368-2.091,8.837-7.165,8.837-12.926s-3.469-10.835-8.837-12.926
	c-16.016-6.24-28.781-19.007-35.023-35.024c-2.091-5.367-7.164-8.835-12.924-8.836c-0.001,0-0.001,0-0.002,0
	c-5.76,0-10.833,3.468-12.926,8.836c-6.241,16.017-19.007,28.782-35.023,35.024c-5.368,2.092-8.836,7.165-8.836,12.926
	c0.001,5.761,3.469,10.835,8.837,12.926C91.822,75.953,104.587,88.719,110.828,104.736z M123.754,16.841
	c7.726,17.87,22.075,32.222,39.945,39.945c-17.869,7.724-32.22,22.075-39.945,39.945c-7.724-17.87-22.074-32.22-39.945-39.945
	C101.682,49.062,116.03,34.713,123.754,16.841z M365.529,113.727c10.458,4.076,18.794,12.411,22.868,22.868
	c1.794,4.604,6.145,7.58,11.087,7.58c0.001,0,0.001,0,0.002,0c4.941,0,9.293-2.975,11.088-7.578
	c0.001-0.001,0.001-0.001,0.001-0.002c4.075-10.457,12.41-18.793,22.867-22.868c4.604-1.794,7.58-6.146,7.58-11.089
	c0-4.941-2.976-9.294-7.58-11.088c-10.457-4.075-18.792-12.41-22.868-22.869c-1.795-4.604-6.147-7.579-11.09-7.578
	c-4.941,0-9.293,2.976-11.087,7.579c-4.075,10.458-12.41,18.793-22.867,22.868c-4.604,1.794-7.58,6.146-7.58,11.088
	C357.951,107.58,360.926,111.933,365.529,113.727z M399.486,80.355c5.104,9.414,12.869,17.18,22.283,22.283
	c-9.416,5.104-17.18,12.868-22.283,22.283c-5.103-9.415-12.867-17.179-22.283-22.283C386.618,97.535,394.383,89.771,399.486,80.355z
	 M272.307,82.82c0.343,0.047,0.683,0.069,1.02,0.069c3.693,0,6.911-2.729,7.422-6.491c0.88-6.474,6.643-17.667,12.113-21.502
	c3.393-2.377,4.216-7.054,1.838-10.445c-2.376-3.394-7.053-4.214-10.445-1.838c-9.291,6.51-16.999,21.681-18.369,31.766
	C265.327,78.483,268.202,82.263,272.307,82.82z M202.069,147.198c-14.151,4.07-35.342,16.404-48.424,33.865
	c-2.484,3.315-1.81,8.016,1.505,10.499c1.349,1.011,2.927,1.498,4.491,1.498c2.281,0,4.535-1.037,6.008-3.003
	c10.407-13.89,28.668-25.021,40.566-28.443c3.98-1.145,6.279-5.3,5.135-9.281C210.205,148.353,206.048,146.056,202.069,147.198z
	 M159.567,208.508c-10.457-4.075-18.793-12.41-22.868-22.867c-1.794-4.604-6.146-7.58-11.089-7.58c-4.941,0-9.294,2.976-11.088,7.58
	c-4.075,10.457-12.41,18.792-22.869,22.868c-4.604,1.795-7.579,6.148-7.578,11.09c0,4.941,2.976,9.293,7.579,11.087
	c10.458,4.075,18.793,12.41,22.868,22.867c1.794,4.605,6.146,7.58,11.088,7.58s9.294-2.975,11.089-7.579
	c4.076-10.458,12.411-18.794,22.868-22.868c4.604-1.794,7.58-6.146,7.58-11.087C167.148,214.656,164.174,210.304,159.567,208.508z
	 M125.611,241.88c-5.104-9.415-12.868-17.18-22.283-22.283c9.414-5.104,17.18-12.869,22.283-22.283
	c5.104,9.416,12.869,17.18,22.283,22.283C138.48,224.7,130.715,232.465,125.611,241.88z M359.405,200.04
	c1.068,0,2.154-0.229,3.186-0.715c3.749-1.762,5.359-6.23,3.597-9.978c-3.799-8.083-19.703-25.549-31.382-30.995
	c-3.752-1.751-8.216-0.127-9.967,3.627s-0.127,8.217,3.627,9.967c8.579,4.001,21.792,18.773,24.147,23.782
	C353.891,198.446,356.589,200.04,359.405,200.04z M436.861,221.785c-13.068-5.093-23.484-15.509-28.577-28.578
	c-1.934-4.962-6.625-8.169-11.951-8.169s-10.018,3.207-11.951,8.17c-5.093,13.068-15.509,23.484-28.577,28.577
	c-4.962,1.934-8.169,6.625-8.169,11.951s3.207,10.018,8.169,11.951c13.068,5.093,23.484,15.509,28.577,28.577
	c1.934,4.962,6.625,8.169,11.951,8.169s10.018-3.207,11.951-8.169c5.093-13.068,15.509-23.484,28.578-28.577
	c4.962-1.934,8.169-6.625,8.169-11.951S441.823,223.719,436.861,221.785z M396.333,264.168
	c-6.404-13.262-17.17-24.027-30.432-30.432c13.262-6.404,24.027-17.171,30.432-30.433c6.404,13.263,17.17,24.028,30.432,30.433
	C413.504,240.141,402.737,250.906,396.333,264.168z M347.863,100.414c0-4.143-3.357-7.5-7.5-7.5
	c-10.542,0-21.349,5.641-28.559,10.372c-3.463,2.273-4.428,6.923-2.155,10.386c1.44,2.194,3.835,3.386,6.277,3.386
	c1.412,0,2.84-0.398,4.108-1.23c7.662-5.029,15.071-7.913,20.328-7.913C344.507,107.914,347.863,104.557,347.863,100.414z
	 M220.026,100.602c-7.357-6.425-27.266-15.613-40.193-18.552c-4.035-0.913-8.057,1.612-8.976,5.651
	c-0.918,4.039,1.612,8.058,5.651,8.976c11.891,2.702,29.128,11.273,33.652,15.224c1.422,1.241,3.18,1.851,4.93,1.851
	c2.09,0,4.17-0.869,5.652-2.567C223.468,108.064,223.146,103.326,220.026,100.602z M291.091,135.655c-4.143,0-7.5,3.357-7.5,7.5
	v22.822c-1.258,0.64-2.473,1.257-3.613,1.834c-2.838,1.436-6.224,1.193-8.832-0.631c-6.086-4.257-13.715-5.387-20.716-3.146v-33.883
	c0-9.143,7.439-16.58,16.581-16.58c3.324,0,6.527,0.978,9.264,2.826c3.431,2.318,8.094,1.418,10.413-2.015
	c2.319-3.432,1.417-8.095-2.015-10.413c-5.227-3.532-11.334-5.399-17.663-5.399c-17.413,0-31.58,14.167-31.58,31.58v44.872
	c0,0.028,0,0.055,0,0.083v180.237c0,14.829,10.276,27.296,24.08,30.673v118.486c0,4.143,3.357,7.5,7.5,7.5s7.5-3.357,7.5-7.5
	V386.017c13.804-3.376,24.081-15.844,24.081-30.673V143.155C298.591,139.013,295.233,135.655,291.091,135.655z M283.591,355.344
	c0,9.143-7.439,16.58-16.581,16.58c-9.143,0-16.58-7.438-16.58-16.58V180.131c1.259-0.511,2.579-1.042,3.984-1.604
	c2.701-1.081,5.743-0.728,8.133,0.944c4.05,2.833,8.782,4.273,13.539,4.273c2.528,0,5.062-0.417,7.505-1.238V355.344z"/>
<g>
</g>
<g>
</g>
<g>
</g>
<g>
</g>
<g>
</g>
<g>
</g>
<g>
</g>
<g>
</g>
<g>
</g>
<g>
</g>
<g>
</g>
<g>
</g>
<g>
</g>
<g>
</g>
<g>
</g>
</svg>
