<?xml version="1.0" encoding="iso-8859-1"?>
<!-- Generator: Adobe Illustrator 19.0.0, SVG Export Plug-In . SVG Version: 6.00 Build 0)  -->
<svg version="1.1" id="Capa_1" xmlns="http://www.w3.org/2000/svg" xmlns:xlink="http://www.w3.org/1999/xlink" x="0px" y="0px"
	 viewBox="0 0 512 512" style="enable-background:new 0 0 512 512;" xml:space="preserve">
<path style="fill:#4BB9F5;" d="M421,443.083L421,443.083c-14.912,0-27-12.088-27-27v-330c0-14.912,12.088-27,27-27l0,0
	c14.912,0,27,12.088,27,27v330C448,430.995,435.912,443.083,421,443.083z"/>
<path style="fill:#FF9155;" d="M448,197.082c29.823,0,54,24.177,54,54c0,29.823-24.177,54-54,54V197.082z"/>
<path style="fill:#4BB9F5;" d="M122,331.083H59c-27.062,0-49-21.938-49-49v-62c0-27.062,21.938-49,49-49h63V331.083z"/>
<path style="fill:#FFFFFF;" d="M394,416.083v-330c0-8.129,3.597-15.413,9.281-20.363L122,171.082v160l281.281,105.363
	C397.597,431.496,394,424.212,394,416.083z"/>
<polygon style="fill:#878791;" points="110.5,452.917 168.5,452.917 122,331.083 64,331.083 "/>
<path d="M394,262.583c5.523,0,10-4.478,10-10v-1.5c0-5.522-4.477-10-10-10s-10,4.478-10,10v1.5
	C384,258.105,388.477,262.583,394,262.583z"/>
<path d="M512,251.082c0-31.888-23.444-58.398-54-63.213V86.083c0-20.402-16.598-37-37-37c-8.564,0-16.452,2.933-22.729,7.836
	L291.265,97.001c-5.172,1.937-7.794,7.7-5.857,12.872c1.504,4.017,5.316,6.495,9.366,6.495c1.166,0,2.351-0.205,3.506-0.639
	l85.813-32.144c-0.055,0.826-0.094,1.657-0.094,2.497v116c0,5.522,4.477,10,10,10s10-4.478,10-10v-116c0-9.374,7.626-17,17-17
	s17,7.626,17,17v330c0,9.374-7.626,17-17,17s-17-7.626-17-17v-121c0-5.522-4.477-10-10-10s-10,4.478-10,10v121
	c0,0.84,0.038,1.671,0.094,2.497L132,324.151V178.016l101.504-38.021c5.172-1.937,7.794-7.7,5.857-12.872
	c-1.938-5.172-7.701-7.799-12.873-5.856l-106.299,39.817H59c-32.533,0-59,26.467-59,59v62c0,31.894,25.442,57.94,57.095,58.952
	l44.063,115.447c1.479,3.875,5.196,6.435,9.343,6.435h58c3.29,0,6.37-1.618,8.236-4.328s2.28-6.164,1.107-9.237l-38.598-101.13
	l259.026,97.026c6.277,4.903,14.165,7.836,22.729,7.836c20.402,0,37-16.598,37-37V314.297C488.556,309.48,512,282.971,512,251.082z
	 M20,282.083v-62c0-21.505,17.495-39,39-39h53v140H64h-5C37.495,321.083,20,303.588,20,282.083z M117.387,442.917L78.521,341.083
	h36.593l38.866,101.833L117.387,442.917L117.387,442.917z M458,293.923v-85.68c19.458,4.542,34,22.019,34,42.84
	S477.458,289.382,458,293.923z"/>
<path d="M262.64,128.402c2.63,0,5.21-1.069,7.07-2.93c1.86-1.859,2.93-4.439,2.93-7.07c0-2.63-1.07-5.21-2.93-7.069
	c-1.86-1.86-4.44-2.931-7.07-2.931s-5.21,1.07-7.07,2.931c-1.86,1.859-2.93,4.439-2.93,7.069c0,2.631,1.07,5.211,2.93,7.07
	C257.43,127.333,260.01,128.402,262.64,128.402z"/>
<path d="M66,236.753c2.63,0,5.21-1.07,7.07-2.93c1.86-1.86,2.93-4.44,2.93-7.07c0-2.64-1.07-5.21-2.93-7.07
	c-1.86-1.87-4.44-2.93-7.07-2.93c-2.63,0-5.21,1.06-7.07,2.93c-1.86,1.86-2.93,4.44-2.93,7.07s1.07,5.2,2.93,7.07
	C60.79,235.682,63.37,236.753,66,236.753z"/>
<path d="M94,284.083c0-5.522-4.477-10-10-10H52c-5.523,0-10,4.478-10,10s4.477,10,10,10h32C89.523,294.083,94,289.605,94,284.083z"
	/>
<g>
</g>
<g>
</g>
<g>
</g>
<g>
</g>
<g>
</g>
<g>
</g>
<g>
</g>
<g>
</g>
<g>
</g>
<g>
</g>
<g>
</g>
<g>
</g>
<g>
</g>
<g>
</g>
<g>
</g>
</svg>
