<?xml version="1.0" encoding="iso-8859-1"?>
<!-- Generator: Adobe Illustrator 19.0.0, SVG Export Plug-In . SVG Version: 6.00 Build 0)  -->
<svg version="1.1" id="Layer_1" xmlns="http://www.w3.org/2000/svg" xmlns:xlink="http://www.w3.org/1999/xlink" x="0px" y="0px"
	 viewBox="0 0 512 512" style="enable-background:new 0 0 512 512;" xml:space="preserve">
<path style="fill:#62DCD2;" d="M241.873,186.139H419.18c0,97.924-79.383,177.307-177.307,177.307S64.566,284.063,64.566,186.139
	S143.949,8.832,241.873,8.832h65.417L241.873,186.139z"/>
<g>
	<circle style="fill:#778082;" cx="115.589" cy="439.897" r="63.323"/>
	<circle style="fill:#778082;" cx="366.344" cy="439.897" r="63.323"/>
</g>
<g>
	<circle style="fill:#E6E6E6;" cx="115.589" cy="439.897" r="34.264"/>
	<circle style="fill:#E6E6E6;" cx="366.344" cy="439.897" r="34.264"/>
</g>
<polygon style="fill:#FD5D65;" points="241.873,8.832 307.29,8.832 241.873,186.139 "/>
<path style="fill:#54CCC0;" d="M108.597,186.139c0-97.924,79.383-177.307,177.307-177.307h-44.031
	c-97.924,0-177.307,79.383-177.307,177.307s79.383,177.307,177.307,177.307c7.455,0,14.801-0.466,22.015-1.36
	C176.354,351.245,108.597,276.608,108.597,186.139z"/>
<g>
	<path style="fill:#FD5D65;" d="M419.18,186.139c0,10.826-0.975,21.418-2.83,31.704H273.577c-17.508,0-31.704-14.196-31.704-31.704
		H419.18z"/>
	<path style="fill:#FD5D65;" d="M241.873,186.139c0,17.508,14.196,31.704,31.704,31.704H416.35"/>
</g>
<path d="M140.941,439.869c0,14.038-11.42,25.457-25.458,25.457c-14.037,0-25.457-11.42-25.457-25.457
	c0-14.037,11.42-25.457,25.457-25.457c6.801,0,13.195,2.649,18.003,7.457c3.437,3.439,9.013,3.44,12.454,0.001
	c3.439-3.438,3.44-9.014,0.001-12.454c-8.135-8.137-18.952-12.618-30.458-12.618c-23.75,0-43.07,19.322-43.07,43.07
	s19.321,43.07,43.07,43.07s43.071-19.322,43.071-43.07c0-4.864-3.942-8.807-8.807-8.807S140.941,435.005,140.941,439.869z"/>
<path d="M323.173,439.869c0,23.75,19.322,43.07,43.071,43.07c23.75,0,43.07-19.322,43.07-43.07s-19.321-43.07-43.07-43.07
	C342.495,396.799,323.173,416.12,323.173,439.869z M391.702,439.869c0,14.038-11.42,25.457-25.457,25.457
	c-14.038,0-25.458-11.42-25.458-25.457c0-14.037,11.42-25.457,25.458-25.457C380.282,414.412,391.702,425.832,391.702,439.869z"/>
<path d="M459.838,129.164h-18.705c-17.017,0-30.861,13.844-30.861,30.86v17.283H254.409l61.043-165.452
	c0.998-2.702,0.611-5.721-1.037-8.084C312.769,1.408,310.07,0,307.19,0h-65.418c-49.713,0-96.45,19.359-131.602,54.512
	c-3.439,3.439-3.439,9.016,0,12.454c3.44,3.44,9.016,3.438,12.455,0c29.739-29.741,68.641-46.991,110.34-49.123v168.271
	c0,0.016,0.001,0.033,0.001,0.05c0,0.022,0.001,0.043,0.001,0.066c0.063,22.284,18.21,40.394,40.508,40.394h79.545
	c4.865,0,8.807-3.943,8.807-8.807s-3.942-8.807-8.807-8.807h-79.545c-9.505,0-17.673-5.824-21.131-14.091h157.7
	c-0.245,4.752-0.702,9.449-1.335,14.091h-26.333c-4.865,0-8.807,3.943-8.807,8.807s3.942,8.807,8.807,8.807h22.966
	c-18.186,73.407-84.621,127.99-163.571,127.99c-89.957,0-163.674-70.859-168.271-159.694h134.513c4.865,0,8.807-3.943,8.807-8.807
	c0-4.864-3.942-8.807-8.807-8.807H73.527c1.578-30.607,11.338-59.967,28.518-85.397c2.722-4.03,1.663-9.504-2.368-12.227
	c-4.03-2.723-9.505-1.663-12.227,2.367c-20.797,30.783-31.791,66.768-31.791,104.064c0,62.229,30.703,117.416,77.753,151.225
	L110.912,367.9c-37.649,2.367-67.559,33.734-67.559,71.97c0,39.773,32.358,72.13,72.13,72.13c36.791,0,67.213-27.693,71.573-63.323
	h107.615c4.36,35.632,34.784,63.323,71.573,63.323c39.772,0,72.13-32.358,72.13-72.13c0-38.318-30.039-69.742-67.802-71.989
	l-23.102-28.671c48.548-33.621,80.415-89.703,80.415-153.097v-26.09c0-7.305,5.944-13.246,13.248-13.246h18.705
	c4.865,0,8.807-3.943,8.807-8.807C468.646,133.107,464.703,129.164,459.838,129.164z M250.579,136.802V17.613h43.974
	L250.579,136.802z M115.483,494.387c-30.061,0-54.517-24.457-54.517-54.517c0-30.061,24.455-54.517,54.517-54.517
	S170,409.81,170,439.87C170,469.93,145.544,494.387,115.483,494.387z M420.762,439.869c0,30.061-24.455,54.517-54.517,54.517
	s-54.518-24.457-54.518-54.517c0-30.061,24.457-54.517,54.518-54.517S420.762,409.809,420.762,439.869z M349.447,369.735
	c-28.914,6.926-51.102,31.299-54.776,61.328H187.056c-3.705-30.278-26.234-54.807-55.499-61.496l16.655-22.622
	c27.506,16.063,59.475,25.282,93.56,25.282c32.891,0,63.809-8.587,90.65-23.621L349.447,369.735z"/>
<g>
</g>
<g>
</g>
<g>
</g>
<g>
</g>
<g>
</g>
<g>
</g>
<g>
</g>
<g>
</g>
<g>
</g>
<g>
</g>
<g>
</g>
<g>
</g>
<g>
</g>
<g>
</g>
<g>
</g>
</svg>
