<?xml version="1.0" encoding="iso-8859-1"?>
<!-- Generator: Adobe Illustrator 19.0.0, SVG Export Plug-In . SVG Version: 6.00 Build 0)  -->
<svg version="1.1" id="Capa_1" xmlns="http://www.w3.org/2000/svg" xmlns:xlink="http://www.w3.org/1999/xlink" x="0px" y="0px"
	 viewBox="0 0 512 512" style="enable-background:new 0 0 512 512;" xml:space="preserve">
<rect x="117.801" y="423.41" style="fill:#CFA78B;" width="276.39" height="34.19"/>
<g>
	<polygon style="fill:#AE7767;" points="429.01,502 394.198,502 394.198,423.412 460.279,423.412 	"/>
	<polygon style="fill:#AE7767;" points="117.804,502 82.992,502 51.723,423.412 117.804,423.412 	"/>
</g>
<path style="fill:#CFA78B;" d="M460.279,423.412H51.723v-90.321c0-7.102,5.757-12.859,12.859-12.859H447.42
	c7.102,0,12.859,5.757,12.859,12.859V423.412z"/>
<path style="fill:#FDD6B7;" d="M354.46,320.233c27.916-32.732,45.351-79.221,45.351-130.791C399.811,90.339,335.425,10,256.001,10
	s-143.81,80.339-143.81,179.442c0,51.57,17.435,98.059,45.351,130.791H354.46z"/>
<path style="fill:#A7DEF2;" d="M217.935,320.233h76.132c12.129-6.435,23.413-15.952,33.26-28.241
	c21.65-27.014,33.574-63.434,33.574-102.551s-11.923-75.537-33.574-102.55c-19.628-24.492-44.959-37.98-71.326-37.98
	s-51.698,13.488-71.326,37.98c-21.65,27.014-33.574,63.434-33.574,102.55s11.923,75.537,33.574,102.551
	C194.522,304.28,205.806,313.798,217.935,320.233z"/>
<path d="M413.751,358.88c-0.66,0-1.31-0.06-1.96-0.19c-0.64-0.13-1.27-0.32-1.87-0.57s-1.18-0.56-1.73-0.92
	c-0.54-0.37-1.06-0.79-1.52-1.25s-0.88-0.97-1.24-1.52c-0.36-0.54-0.67-1.12-0.92-1.72c-0.25-0.61-0.44-1.23-0.57-1.87
	c-0.13-0.65-0.19-1.3-0.19-1.96c0-0.65,0.06-1.31,0.19-1.95s0.32-1.27,0.57-1.87s0.56-1.19,0.92-1.73c0.36-0.54,0.78-1.06,1.24-1.52
	s0.98-0.88,1.52-1.24c0.55-0.36,1.13-0.67,1.73-0.92s1.23-0.44,1.87-0.57c3.25-0.65,6.71,0.41,9.03,2.73
	c0.46,0.46,0.87,0.98,1.24,1.52c0.36,0.539,0.67,1.13,0.92,1.73s0.44,1.23,0.57,1.87c0.13,0.65,0.2,1.3,0.2,1.95
	c0,0.66-0.07,1.31-0.2,1.96c-0.13,0.64-0.32,1.26-0.57,1.87c-0.25,0.6-0.56,1.18-0.92,1.72c-0.37,0.55-0.78,1.06-1.24,1.52
	C418.961,357.82,416.381,358.88,413.751,358.88z"/>
<rect x="204.001" y="348.88" style="fill:#FDF2D3;" width="104" height="37.39"/>
<path d="M470.243,424.251c0.003-0.034,0.006-0.069,0.008-0.104c0.005-0.064,0.009-0.128,0.012-0.191
	c0.001-0.021,0.002-0.043,0.003-0.064c0.004-0.073,0.007-0.147,0.008-0.22c0-0.002,0-0.005,0-0.007
	c0.002-0.081,0.003-0.163,0.003-0.244c0-0.003,0-0.006,0-0.009v-0.017c0-0.007,0-0.013,0-0.019v-90.285
	c0-12.605-10.254-22.859-22.859-22.859h-72.831c22.831-33.838,35.223-75.971,35.223-120.79c0-50.196-15.739-97.478-44.318-133.138
	C336.396,19.996,297.51,0,256.001,0s-80.395,19.996-109.493,56.304c-28.579,35.66-44.318,82.942-44.318,133.138
	c0,44.819,12.392,86.952,35.223,120.79H64.582c-12.605,0-22.859,10.254-22.859,22.859v90.285c0,0.006,0,0.013,0,0.019v0.017
	c0,0.003,0,0.006,0,0.009c0,0.081,0.001,0.163,0.003,0.244c0,0.003,0,0.005,0,0.007c0.002,0.073,0.005,0.147,0.008,0.22
	c0.001,0.021,0.002,0.043,0.003,0.064c0.003,0.064,0.007,0.128,0.012,0.191c0.002,0.035,0.005,0.069,0.008,0.104
	c0.002,0.028,0.005,0.055,0.007,0.083c0.096,1.05,0.354,2.053,0.749,2.984l31.185,78.378c1.514,3.806,5.196,6.303,9.292,6.303
	h34.812c5.523,0,10-4.477,10-10v-34.401h256.395V502c0,5.523,4.477,10,10,10h34.812c4.096,0,7.777-2.498,9.291-6.303l31.185-78.378
	c0.395-0.931,0.653-1.934,0.749-2.984C470.239,424.306,470.241,424.279,470.243,424.251z M122.191,189.442
	C122.191,96.011,182.218,20,256.001,20s133.81,76.011,133.81,169.442c0,45.292-14.55,89.023-40.055,120.79h-25.464
	c3.771-3.682,7.387-7.68,10.838-11.986c23.067-28.782,35.771-67.423,35.771-108.805s-12.704-80.023-35.771-108.804
	c-21.564-26.908-49.666-41.726-79.129-41.726s-57.565,14.819-79.129,41.727c-23.067,28.781-35.771,67.422-35.771,108.804
	s12.704,80.023,35.771,108.804c3.451,4.306,7.067,8.305,10.838,11.987h-25.464C136.74,278.465,122.191,234.734,122.191,189.442z
	 M192.478,285.738c-20.234-25.247-31.377-59.445-31.377-96.297s11.143-71.05,31.377-96.297
	c17.692-22.076,40.252-34.233,63.523-34.233s45.831,12.158,63.523,34.234c20.234,25.246,31.377,59.445,31.377,96.296
	s-11.143,71.05-31.377,96.297c-8.368,10.442-17.786,18.672-28.021,24.494h-71.005C210.264,304.411,200.847,296.181,192.478,285.738z
	 M61.723,333.091c0-1.577,1.283-2.859,2.859-2.859l0,0c0.012,0-0.012,0,0,0H447.42c0.012,0-0.012,0,0,0l0,0
	c1.576,0,2.859,1.282,2.859,2.859v80.321H61.723V333.091z M107.804,492H89.775l-23.311-58.588h41.339L107.804,492L107.804,492z
	 M127.804,447.599v-14.186h256.395v14.186H127.804z M422.227,492h-18.028v-58.588h41.339L422.227,492z"/>
<path d="M194.001,386.271c0,5.523,4.477,10,10,10h104c5.523,0,10-4.477,10-10v-27.388h55.746c5.523,0,10-4.477,10-10
	s-4.477-10-10-10H98.256c-5.523,0-10,4.477-10,10s4.477,10,10,10h95.745V386.271z M298.001,358.883v17.388h-84v-17.388H298.001z"/>
<path d="M209.164,181.766c-2.56,0-5.118-0.976-7.071-2.929c-3.905-3.905-3.905-10.237,0-14.142l51.96-51.959
	c3.905-3.904,10.236-3.905,14.142,0c3.905,3.905,3.905,10.237,0,14.142l-51.96,51.959
	C214.282,180.789,211.723,181.766,209.164,181.766z"/>
<path d="M204.918,139.052c-2.559,0-5.118-0.976-7.071-2.929c-3.905-3.905-3.906-10.237,0-14.142l19.734-19.734
	c3.905-3.905,10.237-3.906,14.142-0.001s3.906,10.237,0.001,14.142l-19.734,19.734C210.037,138.076,207.478,139.052,204.918,139.052
	z"/>
<g>
</g>
<g>
</g>
<g>
</g>
<g>
</g>
<g>
</g>
<g>
</g>
<g>
</g>
<g>
</g>
<g>
</g>
<g>
</g>
<g>
</g>
<g>
</g>
<g>
</g>
<g>
</g>
<g>
</g>
</svg>
