<?xml version="1.0" encoding="iso-8859-1"?>
<!-- Generator: Adobe Illustrator 19.0.0, SVG Export Plug-In . SVG Version: 6.00 Build 0)  -->
<svg version="1.1" id="Layer_1" xmlns="http://www.w3.org/2000/svg" xmlns:xlink="http://www.w3.org/1999/xlink" x="0px" y="0px"
	 viewBox="0 0 511.999 511.999" style="enable-background:new 0 0 511.999 511.999;" xml:space="preserve">
<g>
	<path style="fill:#CB2246;" d="M283.765,106.661l72.829-72.831l1.22-1.222l-10.532-10.531
		c-15.213-15.214-40.106-15.214-55.318-0.002l-84.586,84.586H283.765z"/>
	<g>
		<polygon style="fill:#F8E39E;" points="356.594,33.83 283.765,106.661 431.868,106.661 357.813,32.608 		"/>
		<path style="fill:#F8E39E;" d="M10.676,170.656V341.32H501.32V170.656v-22.262c0-22.95-18.78-41.732-41.735-41.732h-27.718
			H283.765h-76.387H52.409c-22.953,0-41.732,18.781-41.732,41.732C10.676,148.393,10.676,170.656,10.676,170.656z"/>
	</g>
	<path style="fill:#EDBC41;" d="M501.32,341.32H10.676v22.262c0,22.95,18.78,41.732,41.732,41.732h27.72h148.102h76.388h154.967
		c22.955,0,41.735-18.782,41.735-41.732V341.32z"/>
	<path style="fill:#F8E39E;" d="M228.231,405.315H80.129l74.05,74.052l10.534,10.533c15.214,15.212,40.107,15.212,55.32,0
		l84.586-84.585H228.231z"/>
	<path style="fill:#CB2246;" d="M228.231,405.315l-74.052,74.052l10.534,10.533c15.214,15.212,40.107,15.212,55.32,0l84.586-84.585
		H228.231z"/>
	<path style="fill:#EDBC41;" d="M431.868,106.661H283.765h-76.387H52.409c-22.953,0-41.732,18.781-41.732,41.732v22.262H501.32
		v-22.262c0-22.95-18.78-41.732-41.735-41.732H431.868z"/>
</g>
<g>
	<path style="fill:#000003;" d="M459.586,95.997h-23.3l-81.461-81.461C345.451,5.162,332.95,0,319.623,0
		c-13.328,0-25.83,5.162-35.202,14.535L202.96,95.996H52.409c-28.894,0-52.399,23.506-52.399,52.398v215.188
		c0,28.894,23.505,52.401,52.399,52.401h23.302l70.9,70.9c0.009,0.009,0.016,0.018,0.025,0.027c0.009,0.009,0.018,0.015,0.027,0.023
		l10.509,10.509c9.705,9.705,22.454,14.557,35.202,14.557c12.749,0,25.497-4.853,35.203-14.557l81.463-81.46h150.549
		c28.894,0,52.401-23.507,52.401-52.401V148.394C511.987,119.503,488.479,95.997,459.586,95.997z M406.116,95.997h-96.601
		l48.301-48.302L406.116,95.997z M299.507,29.619c5.342-5.344,12.486-8.287,20.116-8.287c7.628,0,14.775,2.943,20.117,8.288
		l2.992,2.992l-63.385,63.386h-46.219L299.507,29.619z M52.409,117.329h154.964c0.003,0,0.007,0,0.011,0h252.203
		c17.131,0,31.068,13.935,31.068,31.065v11.596H150.523H75.871c-5.892,0-10.666,4.775-10.666,10.666
		c0,5.891,4.774,10.666,10.666,10.666h74.65h340.133v149.333H21.343V148.394C21.342,131.264,35.28,117.329,52.409,117.329z
		 M212.492,482.359c-11.093,11.093-29.144,11.094-40.238,0l-2.992-2.992l11.481-11.481c4.165-4.165,4.165-10.919,0-15.085
		c-4.164-4.165-10.918-4.165-15.085,0l-11.481,11.481l-48.298-48.299h172.988L212.492,482.359z M459.586,394.651H80.134
		c-0.004,0-0.007,0-0.012,0H52.409c-17.13,0-31.066-13.937-31.066-31.068v-11.594h469.312v11.594
		C490.654,380.713,476.718,394.651,459.586,394.651z"/>
	<path style="fill:#000003;" d="M396.759,228.984h16.311v64.172c0,3.782,4.609,5.672,9.219,5.672c4.607,0,9.219-1.89,9.219-5.672
		v-64.172h16.308c3.545,0,5.555-3.9,5.555-8.392c0-3.9-1.655-8.153-5.555-8.153h-51.056c-3.9,0-5.555,4.254-5.555,8.153
		C391.204,225.084,393.213,228.984,396.759,228.984z"/>
	<path style="fill:#000003;" d="M259.144,298.829c4.609,0,9.219-1.89,9.219-5.672v-21.39l4.962-6.382l20.209,30.728
		c1.537,2.481,3.9,3.427,6.383,3.427c5.316,0,11.108-4.609,11.108-9.217c0-1.066-0.354-2.129-0.944-3.073l-24.466-37.466
		l19.383-24.346c0.945-1.3,1.181-2.599,1.181-3.545c0-4.609-6.144-9.452-10.872-9.452c-1.891,0-3.545,0.707-4.846,2.6
		l-22.099,31.318v-28.365c0-3.9-4.609-5.553-9.219-5.553c-4.61,0-9.219,1.653-9.219,5.553v75.163
		C249.926,296.939,254.535,298.829,259.144,298.829z"/>
	<path style="fill:#000003;" d="M332.914,298.829h42.075c3.897,0,5.554-4.136,5.554-7.916c0-4.375-2.011-8.155-5.554-8.155h-31.673
		v-20.09h17.727c3.901,0,5.555-3.782,5.555-6.975c0-3.78-2.01-7.209-5.555-7.209h-17.727V228.51h31.673
		c3.543,0,5.554-3.78,5.554-8.154c0-3.78-1.656-7.916-5.554-7.916h-42.075c-4.017,0-8.035,1.89-8.035,5.672v75.044
		C324.878,296.939,328.897,298.829,332.914,298.829z"/>
	<path style="fill:#000003;" d="M202.864,299.538c16.899,0,29.664-8.982,29.664-24.702c0-7.088-2.956-8.745-9.336-8.745
		c-4.728,0-8.747,1.183-9.1,5.555c-0.354,4.609-0.944,11.82-10.4,11.82c-6.855,0-10.754-3.782-10.754-11.82V240.33
		c0-8.038,3.898-11.82,10.635-11.82c10.048,0,10.401,7.566,10.518,10.638c0.236,4.253,4.255,5.555,9.219,5.555
		c6.262,0,9.219-1.655,9.219-8.745c0-15.009-12.764-23.519-29.664-23.519c-15.483,0-28.363,7.562-28.363,27.892v31.316
		C174.5,291.976,187.381,299.538,202.864,299.538z"/>
	<path style="fill:#000003;" d="M64.183,228.984h16.311v64.172c0,3.782,4.606,5.672,9.216,5.672c4.61,0,9.219-1.89,9.219-5.672
		v-64.172h16.311c3.543,0,5.553-3.9,5.553-8.392c0-3.9-1.653-8.153-5.553-8.153H64.183c-3.9,0-5.555,4.254-5.555,8.153
		C58.628,225.084,60.638,228.984,64.183,228.984z"/>
	<path style="fill:#000003;" d="M145.402,298.829c4.609,0,9.217-1.89,9.217-5.672v-75.163c0-3.9-4.607-5.553-9.217-5.553
		c-4.611,0-9.219,1.653-9.219,5.553v75.163C136.183,296.939,140.791,298.829,145.402,298.829z"/>
	<path style="fill:#000003;" d="M44.204,181.324h0.781c5.891,0,10.666-4.775,10.666-10.666s-4.775-10.666-10.666-10.666h-0.781
		c-5.891,0-10.666,4.775-10.666,10.666C33.538,176.548,38.312,181.324,44.204,181.324z"/>
	<path style="fill:#000003;" d="M195.041,449.172c2.729,0,5.46-1.041,7.542-3.124l0.554-0.554c4.165-4.165,4.165-10.919,0-15.085
		c-4.164-4.165-10.918-4.165-15.085,0l-0.554,0.554c-4.165,4.165-4.165,10.919,0,15.085
		C189.581,448.131,192.312,449.172,195.041,449.172z"/>
</g>
<g>
</g>
<g>
</g>
<g>
</g>
<g>
</g>
<g>
</g>
<g>
</g>
<g>
</g>
<g>
</g>
<g>
</g>
<g>
</g>
<g>
</g>
<g>
</g>
<g>
</g>
<g>
</g>
<g>
</g>
</svg>
