<?xml version="1.0" encoding="utf-8"?>
<!-- Generator: Adobe Illustrator 22.1.0, SVG Export Plug-In . SVG Version: 6.00 Build 0)  -->
<svg version="1.1" id="레이어_1" xmlns="http://www.w3.org/2000/svg" xmlns:xlink="http://www.w3.org/1999/xlink" x="0px"
	 y="0px" viewBox="0 0 500 500" style="enable-background:new 0 0 500 500;" xml:space="preserve">
<style type="text/css">
	.st0{fill:#FFFFFF;}
	.st1{fill:#17C060;}
	.st2{opacity:0.333;fill:#17C060;}
	.st3{fill:url(#SVGID_1_);}
	.st4{fill:url(#SVGID_2_);}
	.st5{fill:url(#SVGID_3_);}
	.st6{opacity:0.5;fill:#17C060;}
	.st7{fill:none;}
</style>
<g>
	<path class="st0" d="M500,404c0,52.8-43.2,96-96,96H96c-52.8,0-96-43.2-96-96V96C0,43.2,43.2,0,96,0h308c52.8,0,96,43.2,96,96V404z
		"/>
</g>
<g>
	<path class="st1" d="M372.7,168.6V125h-31.8v27.7L250,107.2l-113.9,57l-8.8,4.4L75,194.7l14.2,28.4l38-19v81.8h245.5V270v-65.9
		l38,19l14.2-28.4L372.7,168.6z M340.9,254.1H159.1v-65.9l90.9-45.5l90.9,45.5V254.1z"/>
	<path class="st1" d="M316.3,337.8c-8.8,6.6-18.9,12-30,15.9c-19.9,7.1-36.1,7.3-36.3,7.3c-13.7,0-27-2.6-39.5-7.9
		c-10.2-4.3-19.9-10.2-29-17.8c-16.3-13.6-24.6-27.4-24.7-27.6l0,0l-27.4,16.1c1.1,1.9,11.4,18.9,31.5,35.7
		c11.5,9.6,24,17.3,37.2,22.8c16.5,6.9,33.9,10.4,51.9,10.4c2.2,0,22.1-0.3,46.7-9c14.1-5,27.1-11.9,38.5-20.4
		c14.3-10.7,26.2-23.9,35.3-39.4l-27.4-16.1C336.2,319.5,327.2,329.6,316.3,337.8z"/>
</g>
</svg>
