<?xml version="1.0" encoding="utf-8"?>
<!-- Generator: Adobe Illustrator 22.1.0, SVG Export Plug-In . SVG Version: 6.00 Build 0)  -->
<svg version="1.1" id="레이어_1" xmlns="http://www.w3.org/2000/svg" xmlns:xlink="http://www.w3.org/1999/xlink" x="0px"
	 y="0px" viewBox="0 0 1536 1536" style="enable-background:new 0 0 1536 1536;" xml:space="preserve">
<style type="text/css">
	.st0{fill:#FFFFFF;}
	.st1{fill:#17C060;}
	.st2{opacity:0.333;fill:#17C060;}
	.st3{fill:url(#SVGID_1_);}
	.st4{fill:url(#SVGID_2_);}
	.st5{fill:url(#SVGID_3_);}
	.st6{opacity:0.5;fill:#17C060;}
	.st7{fill:none;}
</style>
<g>
	<path class="st0" d="M1536,1248c0,158.4-129.6,288-288,288H288c-158.4,0-288-129.6-288-288V288C0,129.6,129.6,0,288,0h960
		c158.4,0,288,129.6,288,288V1248z"/>
</g>
<path class="st0" d="M912,943.5c-19.2,14.4-41.1,26-65.2,34.6c-43.3,15.5-78.4,15.7-78.8,15.7c-29.8,0-58.6-5.7-85.7-17.1
	c-22.1-9.2-43.3-22.2-62.9-38.6c-35.3-29.4-53.4-59.6-53.6-59.9l0,0l-59.5,35c2.4,4.1,24.8,41,68.3,77.4
	c25,20.9,52.1,37.6,80.7,49.5c35.7,15,73.6,22.6,112.7,22.6c4.7,0,47.9-0.5,101.4-19.6c30.7-10.9,58.8-25.8,83.6-44.3
	c31-23.2,56.8-52,76.7-85.6l-59.5-35C955.1,904,935.5,925.9,912,943.5z"/>
<g>
	<g>
		<path class="st1" d="M1536,1376c0,88-72,160-160,160H160c-88,0-160-72-160-160V160C0,72,72,0,160,0h1216c88,0,160,72,160,160V1376
			z"/>
	</g>
	<g>
		<g>
			<path class="st0" d="M461.8,969.8c-0.2,0.1-0.5,0.2-0.7,0.4c-9.1,5.2-27.6,9.8-39.5,9.8c-56.3,0-67.8-39.3-67.8-98.4V663.4h93.1
				c16.1,0,24.9-11.5,24.9-22.3c0-10.8-8.7-22.3-24.9-22.3h-93.1v-85c0-12.7-10-22.3-23.2-22.3c-13,0-22.8,9.6-22.8,22.3v85h-58.9
				c-16.5,0-25.4,11.5-25.4,22.3c0,10.8,8.9,22.3,25.4,22.3h58.9v218.2c0,94.8,38.3,142.9,113.8,142.9c22.5,0,40.7-4.3,59.1-13.8
				c15.7-8.2,18-21.8,13.4-31.1C489,969.5,475.6,963.2,461.8,969.8z"/>
			<path class="st0" d="M421.5,1028.3c-38.8,0-68.5-12.6-88.2-37.3c-19.5-24.5-29.4-61.3-29.4-109.4V667.2h-55.1
				c-19,0-29.3-13.4-29.3-26.1c0-12.6,10.3-26.1,29.3-26.1h55.1v-81.1c0-14.9,11.4-26.2,26.6-26.2c15.4,0,27.1,11.3,27.1,26.2V615
				h89.3c18.6,0,28.7,13.4,28.7,26.1c0,12.7-10.1,26.1-28.7,26.1h-89.3v214.4c0,58.4,10.7,94.5,64,94.5c11.2,0,29.1-4.4,37.6-9.3
				c0.3-0.2,0.6-0.3,0.9-0.5l0,0c16-7.6,31.5-0.1,37.3,11.5c7.7,15.5-2.4,29.7-15,36.2C463.5,1023.9,444.7,1028.3,421.5,1028.3z
				 M248.8,622.7c-14,0-21.6,9.5-21.6,18.4s7.6,18.4,21.6,18.4h62.7v222.1c0,46.3,9.3,81.5,27.8,104.6
				c18.2,22.9,45.9,34.4,82.2,34.4c21.9,0,39.5-4.1,57.3-13.4c13.5-7,15.6-18.1,11.7-26c-4.1-8.3-15.4-13.6-27.1-8l0,0
				c-0.1,0.1-0.3,0.1-0.4,0.2c-9.8,5.6-28.8,10.3-41.5,10.3c-63,0-71.7-49.1-71.7-102.2V659.5h97c13.7,0,21-9.5,21-18.4
				s-7.4-18.4-21-18.4h-97v-88.8c0-10.6-8.3-18.5-19.4-18.5c-10.8,0-18.9,8-18.9,18.5v88.8H248.8z"/>
		</g>
		<g>
			<path class="st0" d="M876.7,969.8c-0.2,0.1-0.5,0.2-0.7,0.4c-9.1,5.2-27.6,9.8-39.5,9.8c-56.3,0-67.8-39.3-67.8-98.4V663.4h93.1
				c16.1,0,24.9-11.5,24.9-22.3c0-10.8-8.7-22.3-24.9-22.3h-93.1v-85c0-12.7-10-22.3-23.2-22.3c-13,0-22.8,9.6-22.8,22.3v85h-58.9
				c-16.5,0-25.4,11.5-25.4,22.3c0,10.8,8.9,22.3,25.4,22.3h58.9v218.2c0,94.8,38.3,142.9,113.8,142.9c22.5,0,40.7-4.3,59.1-13.8
				c15.7-8.2,18-21.8,13.4-31.1C904,969.5,890.6,963.2,876.7,969.8z"/>
			<path class="st0" d="M836.5,1028.3c-38.8,0-68.5-12.6-88.2-37.3c-19.5-24.5-29.4-61.3-29.4-109.4V667.2h-55.1
				c-19,0-29.3-13.4-29.3-26.1c0-12.6,10.3-26.1,29.3-26.1h55.1v-81.1c0-14.9,11.4-26.2,26.6-26.2c15.4,0,27.1,11.3,27.1,26.2V615
				h89.3c18.6,0,28.7,13.4,28.7,26.1c0,12.7-10.1,26.1-28.7,26.1h-89.3v214.4c0,58.4,10.7,94.5,64,94.5c11.2,0,29.1-4.4,37.6-9.3
				c0.3-0.2,0.6-0.3,0.9-0.5l0,0c16-7.6,31.5-0.1,37.3,11.5c7.7,15.5-2.4,29.7-15,36.2C878.4,1023.9,859.7,1028.3,836.5,1028.3z
				 M663.8,622.7c-14,0-21.6,9.5-21.6,18.4s7.6,18.4,21.6,18.4h62.7v222.1c0,46.3,9.3,81.5,27.8,104.6
				c18.2,22.9,45.9,34.4,82.2,34.4c21.9,0,39.5-4.1,57.3-13.4c13.5-7,15.6-18.1,11.7-26c-4.1-8.3-15.4-13.6-27.1-8
				c-0.1,0.1-0.3,0.1-0.4,0.2c-9.8,5.6-28.8,10.3-41.5,10.3c-63,0-71.7-49.1-71.7-102.2V659.5h97c13.7,0,21-9.5,21-18.4
				s-7.4-18.4-21-18.4h-97v-88.8c0-10.6-8.3-18.5-19.4-18.5c-10.8,0-18.9,8-18.9,18.5v88.8H663.8z"/>
		</g>
		<g>
			<g>
				<path class="st0" d="M566.5,633.3c-11.4,0-23.6,8.4-23.6,23.8v343.6c0,13.5,10,23.7,23.4,23.7c13.3,0,23.4-10.2,23.4-23.7V656.4
					C589.7,643.2,579.7,633.3,566.5,633.3z"/>
				<path class="st0" d="M566.3,1028.3c-15.5,0-27.2-11.9-27.2-27.6V657.1c0-18,14.1-27.7,27.4-27.7c15.4,0,27,11.6,27,26.9v344.3
					C593.5,1016.4,581.8,1028.3,566.3,1028.3z M566.5,637.2c-9.6,0-19.7,7-19.7,20v343.6c0,11.3,8.4,19.9,19.5,19.9
					c11.1,0,19.5-8.6,19.5-19.9V656.4C585.8,645.4,577.5,637.2,566.5,637.2z"/>
			</g>
			<g>
				
					<ellipse transform="matrix(0.9871 -0.1602 0.1602 0.9871 -80.1569 97.7647)" class="st0" cx="566.3" cy="546.1" rx="31" ry="31"/>
				<path class="st0" d="M566.3,580.9c-19.2,0-34.9-15.6-34.9-34.9c0-19.2,15.6-34.9,34.9-34.9c19.2,0,34.9,15.6,34.9,34.9
					C601.2,565.3,585.5,580.9,566.3,580.9z M566.3,518.9c-15,0-27.2,12.2-27.2,27.2c0,15,12.2,27.2,27.2,27.2
					c15,0,27.2-12.2,27.2-27.2C593.5,531.1,581.3,518.9,566.3,518.9z"/>
			</g>
		</g>
		<g>
			<g>
				<path class="st0" d="M1312.5,817.8c-1.6-99.7-55.7-173.4-144.7-197.2c-37.4-9.7-80.3-9.7-117.8,0
					c-82,22.8-139.8,96.9-143.8,184.4c-3,56,12.3,104.7,46.8,149.1c34.1,43.8,91.6,69.4,157.6,70.3c1.3,0,2.5,0,3.8,0
					c53.7,0,102.8-17.2,135.4-47.7c11.4-11.4,9.5-24.5,2.9-32c-8.4-9.6-22.9-10.5-33.6-2.2c-31.3,23.9-70.7,36.6-110.5,35.9
					c-1.1,0-2.3-0.1-3.4-0.1c-1.8,0-3.6-0.1-5.3-0.2c-0.2,0-0.4,0-0.6,0c-2.7-0.2-5.3-0.4-8-0.7c-0.5-0.1-0.9-0.1-1.4-0.2
					c-2-0.2-3.9-0.5-5.9-0.8c-37.7-5.9-71.2-24-94.4-51.6c-17.4-20.3-28.8-44.4-33.8-71.5h0c-2.3-10.9-3.6-22.2-3.6-33.8
					c0-23.8,5.2-46.4,14.5-66.7c17.9-42.9,52.7-75.5,97.4-87.5c28.5-7.6,61.3-7.9,89.9-0.8c58.7,15.8,97.7,60.1,108.9,120.9
					c2.4,10.9,3.6,22.3,3.6,33.9c-0.1,3.3-0.1,6.9-0.1,10.9c0,12.7,10.1,23,22.8,23c10.5,0,19.2-7,22-16.6c0,0,0-0.1,0-0.1
					c0.2-0.8,0.4-1.5,0.6-2.3C1312.6,831.1,1312.8,826.2,1312.5,817.8z"/>
				<path class="st0" d="M1114.4,1028.3c-1.3,0-2.6,0-3.9,0c-67.2-0.9-125.8-27-160.6-71.7c-35.1-45.1-50.7-94.7-47.7-151.7
					c4.1-89.2,63-164.7,146.6-187.9c38.1-9.9,81.7-10,119.8-0.1c90.7,24.3,145.9,99.4,147.6,200.8c0.3,8.3,0.1,13.6-0.5,17.1
					c-0.2,0.9-0.4,1.8-0.6,2.6l-0.1,0.2c0,0,0,0.1,0,0.1c-3.3,11.4-13.9,19.3-25.7,19.3c-7.1,0-13.8-2.8-18.8-7.8
					c-5.1-5.1-7.8-11.8-7.8-19.1c0-4.1,0-7.7,0.1-11c0-11-1.2-22.1-3.6-33c-11-59.8-49.7-102.8-106.2-118c-28-7-60.1-6.7-87.9,0.8
					c-42.4,11.5-77,42.5-94.8,85.3c-9.4,20.6-14.2,42.5-14.2,65.2c0,11,1.2,22.1,3.5,33l1,4.6h-0.1c5.3,24.6,16.1,46.5,32.1,65.2
					c22.4,26.6,55.1,44.5,92.1,50.3c1.9,0.3,3.8,0.6,5.8,0.8l1.3,0.2c2.6,0.3,5.2,0.5,7.8,0.7l0.6,0c1.7,0.1,3.4,0.2,5.2,0.2
					l1.4,0.1c0.6,0,1.3,0.1,1.9,0.1c39,0.7,77.4-11.7,108.1-35.1c12.3-9.6,29-8.4,38.8,2.7c7.7,8.7,10,24.1-3.1,37.2
					C1219.3,1010.5,1169,1028.3,1114.4,1028.3z M1108.9,617.2c-19.8,0-39.6,2.4-58,7.2c-80.3,22.3-137,95-140.9,180.8
					c-2.9,55,12.1,103,46,146.6c33.4,42.9,89.8,67.9,154.7,68.8c1.3,0,2.5,0,3.8,0c52.6,0,101-17,132.8-46.7
					c9.6-9.6,8.2-20.3,2.6-26.6c-7.1-8-19.3-8.8-28.4-1.7c-32.1,24.4-72.2,37.5-112.9,36.7c-0.7,0-1.4,0-2.2-0.1l-1.3-0.1
					c-1.8,0-3.6-0.1-5.4-0.2l-0.6,0c-2.7-0.2-5.5-0.4-8.2-0.7l-1.4-0.2c-2-0.3-4-0.5-6-0.9c-38.8-6.1-73.2-24.9-96.7-52.9
					c-17.8-20.8-29.5-45.5-34.7-73.3l0-0.2c-2.4-11.3-3.6-22.8-3.6-34.3c0-23.8,5-46.8,14.8-68.3c18.7-44.8,55.1-77.5,99.9-89.6
					c29.1-7.8,62.6-8.1,91.9-0.8c59.5,16.1,100.2,61.3,111.7,124c2.4,11.3,3.7,23,3.7,34.6c-0.1,3.3-0.1,6.9-0.1,10.9
					c0,5.2,2,10,5.6,13.6c3.6,3.6,8.3,5.5,13.4,5.5c8.4,0,15.9-5.7,18.3-13.8l0.1-0.2c0.2-0.7,0.4-1.2,0.5-1.8
					c0.5-2.9,0.6-7.8,0.4-15.5l0-0.1c-1.6-97.8-54.7-170.2-141.9-193.6C1148.4,619.6,1128.7,617.2,1108.9,617.2z"/>
			</g>
			<g>
				<path class="st0" d="M1053.7,823.3c0-8.6-6.8-15.6-15.3-15.6c-4.2,0-8.1,1.7-11.1,4.9l-21.3,23c-0.1,0.1-0.1,0.1-0.2,0.2
					c-0.1,0.1-1.4,2.1-1.8,4.9c-0.3,1.3-0.5,2.6-0.5,3.9c0,8.6,6.8,15.6,15.3,15.6c0.1,0,0.2,0,0.4,0l0.3,0c1.4-0.1,2.7-0.3,4-0.7
					l0.1,0c1.6,0,3.2,0.3,4.8,1c0.4,0.2,0.8,0.4,1.2,0.6c1.2,0.7,2.3,1.5,3.2,2.6c0.3,0.3,0.6,0.8,1,1.3c0.1,0.1,0.3,0.3,0.4,0.5
					c3.3,4,10.7,11.7,23.8,18.8c6.5,3.5,13.6,6.4,21.2,8.8c5.4,1.7,11,3,16.8,4c6.2,1,12.8,1.5,19.7,1.5c6.9,0,13.5-0.5,19.7-1.5
					c5.9-1,11.5-2.4,16.8-4c7.6-2.3,14.6-5.2,21.2-8.8c13.1-7.1,20.5-14.8,23.8-18.8c0.1-0.2,0.3-0.3,0.4-0.5c0.4-0.5,0.8-1,1-1.3
					c1-1,2.1-1.9,3.2-2.6c0.4-0.2,0.8-0.4,1.2-0.6c1.5-0.6,3.1-0.9,4.9-1c1.3,0.4,2.6,0.6,4,0.7l0.3,0c0.1,0,0.2,0,0.3,0
					c8.4,0,15.3-7,15.3-15.6c0-1.3-0.2-2.6-0.5-3.7c-0.5-3-1.8-5-1.9-5.1c0-0.1-0.1-0.1-0.2-0.2l-21.3-23c-2.9-3.1-6.8-4.9-11.1-4.9
					c-8.4,0-15.3,7-15.3,15.6c0,2.4,0.5,4.7,1.6,6.9c0.7,1.5,1.6,2.8,2.8,4c-0.1,0.5-0.3,0.9-0.4,1.1c-4.5,6.6-10.1,11.5-16,15.4
					c-11.3,7.4-24.1,10.4-34.3,11.6c-5,0.6-10.2,1-15.6,1c-5.3,0-10.4-0.3-15.3-0.9c-10.2-1.1-23.2-4.2-34.7-11.7
					c-5.9-3.8-11.5-8.8-16-15.4c-0.1-0.2-0.2-0.6-0.4-1.1c1.1-1.2,2.1-2.5,2.8-4C1053.2,828,1053.7,825.7,1053.7,823.3z
					 M1212.1,858.5L1212.1,858.5L1212.1,858.5C1212.1,858.5,1212.1,858.5,1212.1,858.5z"/>
				<path class="st0" d="M1115.7,909.9c-7.3,0-14.5-0.5-21.4-1.6l-0.2,0c-6.4-1.1-12.5-2.6-18.2-4.4c-8.4-2.6-16.2-5.8-23.3-9.7
					c-14.8-8-23.4-17-27.2-21.6l-0.5-0.6c-0.3-0.3-0.5-0.7-0.7-1c-1.3,0.3-2.7,0.4-4.1,0.5c-0.5,0-0.8,0-1.1,0
					c-14.8,0-26.8-12.2-26.8-27.1c0-2,0.2-4.1,0.7-6.2c0.9-4.7,2.9-8.1,3.5-9c0.3-0.5,0.8-1.1,1.3-1.7l21.2-22.9
					c5.1-5.5,12.1-8.6,19.5-8.6c14.8,0,26.8,12.2,26.8,27.1c0,3.6-0.7,7.1-2.1,10.4c2.6,2.7,5.5,5.2,8.8,7.3
					c10.1,6.5,21.7,9,29.7,9.9c9.4,1.2,19,1.1,28.1,0c8-0.9,19.6-3.4,29.5-9.8c3.3-2.1,6.2-4.6,8.8-7.3c-1.4-3.3-2.1-6.8-2.1-10.4
					c0-15,12-27.1,26.8-27.1c7.5,0,14.4,3,19.5,8.6l21.3,23c0.5,0.6,0.9,1.1,1.3,1.6l0.1,0.2c0.8,1.2,2.6,4.4,3.5,9
					c0.5,2,0.7,4.1,0.7,6.1c0,15-12,27.1-26.8,27.1c-0.3,0-0.7,0-1,0l-0.1,0c-1.4-0.1-2.7-0.2-4.1-0.5c0,0,0,0,0,0
					c-0.2,0.3-0.5,0.6-0.8,1c-0.1,0.1-0.3,0.4-0.5,0.7c-3.7,4.5-12.3,13.5-27.1,21.5c-7,3.8-14.9,7.1-23.3,9.7
					c-5.7,1.8-11.8,3.2-18.2,4.4l-0.2,0C1130.2,909.4,1122.9,909.9,1115.7,909.9z M1097.9,885.6c11.5,1.8,24.1,1.8,35.6,0
					c5.4-1,10.5-2.2,15.3-3.7c6.9-2.1,13.4-4.8,19.1-7.9c11.4-6.2,17.7-12.7,20.4-16l0.2-0.3c0.4-0.5,0.6-0.8,0.8-1l0.8-0.9
					c1.8-2,3.9-3.6,6.2-4.9c0.7-0.4,1.5-0.8,2.4-1.1c2.9-1.2,6-1.8,9.3-1.9l1.8,0l1.7,0.6c0.3,0.1,0.6,0.1,1,0.2l0.3,0
					c2-0.1,3.6-1.9,3.6-4.1c0-0.3,0-0.6-0.1-0.9l-0.2-1c0-0.1-0.1-0.3-0.1-0.4l-20.3-21.9c-0.7-0.8-1.6-1.2-2.6-1.2
					c-2.1,0-3.7,1.8-3.7,4.1c0,0.7,0.1,1.3,0.4,1.9c0.2,0.4,0.4,0.7,0.7,1l4.6,4.8l-1.8,6.4c-0.2,0.7-0.4,1.3-0.5,1.6l-0.5,1.6
					l-0.9,1.3c-5,7.3-11.5,13.5-19.2,18.5c-10.8,7-24.4,11.7-39.3,13.4c-10.8,1.4-22.6,1.4-33.6,0c-10.3-1.2-25.7-4.4-39.5-13.4
					c-7.7-5-14.2-11.2-19.2-18.5l-0.9-1.3l-0.5-1.5c-0.1-0.3-0.3-0.9-0.5-1.7l-1.8-6.4l4.6-4.8c0.3-0.3,0.5-0.6,0.7-1
					c0.3-0.6,0.4-1.2,0.4-1.9c0-2.2-1.7-4.1-3.7-4.1c-1,0-1.9,0.4-2.6,1.2l-20.3,21.9c0,0.1,0,0.1,0,0.2l-0.2,0.9
					c-0.1,0.4-0.1,0.8-0.1,1.1c0,2.2,1.6,4,3.6,4.1l0.2,0c0.5,0,0.8-0.1,1.1-0.2l1.3-0.4l2.3-0.1c3.2,0,6.3,0.6,9.2,1.9
					c0.8,0.3,1.6,0.7,2.4,1.1c2.3,1.3,4.4,2.9,6.2,4.9l0.8,0.9c0.2,0.2,0.4,0.5,0.7,0.9l0.2,0.3c2.8,3.4,9.1,9.9,20.5,16.1
					c5.7,3.1,12.1,5.8,19.1,7.9C1087.3,883.4,1092.5,884.6,1097.9,885.6z M1014.6,843.3L1014.6,843.3
					C1014.5,843.4,1014.6,843.3,1014.6,843.3z M1015.6,842C1015.6,842,1015.6,842,1015.6,842C1015.6,842,1015.6,842,1015.6,842z"/>
			</g>
		</g>
	</g>
</g>
</svg>
