<?xml version="1.0" encoding="utf-8"?>
<!-- Generator: Adobe Illustrator 22.1.0, SVG Export Plug-In . SVG Version: 6.00 Build 0)  -->
<svg version="1.1" id="레이어_1" xmlns="http://www.w3.org/2000/svg" xmlns:xlink="http://www.w3.org/1999/xlink" x="0px"
	 y="0px" viewBox="0 0 1536 1536" style="enable-background:new 0 0 1536 1536;" xml:space="preserve">
<style type="text/css">
	.st0{fill:#FFFFFF;}
	.st1{fill:#17C060;}
	.st2{opacity:0.333;fill:#17C060;}
	.st3{fill:url(#SVGID_1_);}
	.st4{fill:url(#SVGID_2_);}
	.st5{fill:url(#SVGID_3_);}
	.st6{opacity:0.5;fill:#17C060;}
	.st7{fill:none;}
</style>
<g>
	<path class="st1" d="M1536.2,1376c0,88-72,160-160,160h-1216c-88,0-160-72-160-160V160c0-88,72-160,160-160h1216
		c88,0,160,72,160,160V1376z"/>
</g>
<g>
	<g>
		<path class="st0" d="M442.7,979.2c-0.2,0.1-0.5,0.2-0.7,0.4c-9.6,5.5-29,10.3-41.5,10.3c-59.1,0-71.3-41.3-71.3-103.3V657.3H427
			c17,0,26.1-12,26.1-23.4c0-11.3-9.2-23.4-26.1-23.4h-97.9v-89.3c0-13.4-10.5-23.5-24.4-23.5c-13.6,0-23.9,10.1-23.9,23.5v89.3
			h-61.9c-17.3,0-26.7,12-26.7,23.4c0,11.3,9.4,23.4,26.7,23.4h61.9v229.3c0,99.6,40.2,150.1,119.6,150.1c23.6,0,42.8-4.5,62.1-14.5
			c16.5-8.6,18.9-22.9,14-32.7C471.3,979,457.2,972.3,442.7,979.2z"/>
		<path class="st0" d="M400.4,1046.2c-42.6,0-75.2-13.9-97.1-41.3c-21.3-26.8-32.1-66.6-32.1-118.4V666.9h-52.3
			c-17.6,0-36.3-11.6-36.3-33s18.7-33,36.3-33h52.3v-79.7c0-18.5,14.7-33.1,33.5-33.1c19.1,0,34,14.5,34,33.1v79.7H427
			c17.3,0,35.7,11.6,35.7,33s-18.4,33-35.7,33h-88.3v219.7c0,69.2,16.1,93.7,61.7,93.7c10.8,0,28.7-4.4,36.8-9
			c0.4-0.2,0.8-0.5,1.3-0.7l0,0c19.9-9.5,39.3,0,46.6,14.6c7.1,14.2,3.1,34.4-18.2,45.5C446.2,1041.4,425.7,1046.2,400.4,1046.2z
			 M218.9,620.1c-12.5,0-17.1,8.2-17.1,13.8s4.6,13.8,17.1,13.8h71.5v238.9c0,94.5,36,140.5,110,140.5c22,0,39.8-4.1,57.7-13.4
			c11.6-6,12.6-14.5,9.9-19.9c-2.7-5.4-11-10.7-21.1-5.9l-0.1,0c-11,6.3-32.2,11.6-46.3,11.6c-31.6,0-53.2-10.9-66.1-33.2
			c-10.2-17.7-14.7-42.3-14.7-79.7V647.7H427c12.1,0,16.5-8.2,16.5-13.8s-4.4-13.8-16.5-13.8H319.5v-98.9c0-8-6.2-13.9-14.8-13.9
			c-8.3,0-14.3,5.8-14.3,13.9v98.9H218.9z"/>
	</g>
	<g>
		<path class="st0" d="M876.7,979.2c-0.2,0.1-0.5,0.2-0.7,0.4c-9.6,5.5-29,10.3-41.5,10.3c-59.1,0-71.3-41.3-71.3-103.3V657.3H861
			c17,0,26.1-12,26.1-23.4c0-11.3-9.2-23.4-26.1-23.4h-97.9v-89.3c0-13.4-10.5-23.5-24.4-23.5c-13.6,0-23.9,10.1-23.9,23.5v89.3H653
			c-17.3,0-26.7,12-26.7,23.4c0,11.3,9.4,23.4,26.7,23.4h61.9v229.3c0,99.6,40.2,150.1,119.6,150.1c23.6,0,42.8-4.5,62.1-14.5
			c16.5-8.6,18.9-22.9,14-32.7C905.3,979,891.2,972.3,876.7,979.2z"/>
		<path class="st0" d="M834.4,1046.2c-42.6,0-75.2-13.9-97.1-41.3c-21.3-26.8-32.1-66.6-32.1-118.4V666.9H653
			c-17.6,0-36.3-11.6-36.3-33s18.7-33,36.3-33h52.3v-79.7c0-18.5,14.7-33.1,33.5-33.1c19.1,0,34,14.5,34,33.1v79.7H861
			c17.3,0,35.7,11.6,35.7,33s-18.4,33-35.7,33h-88.3v219.7c0,69.2,16.1,93.7,61.7,93.7c10.8,0,28.7-4.4,36.8-9
			c0.4-0.2,0.8-0.5,1.3-0.7l0,0c19.9-9.5,39.3,0,46.6,14.6c7.1,14.2,3.1,34.4-18.2,45.5C880.2,1041.4,859.7,1046.2,834.4,1046.2z
			 M653,620.1c-12.5,0-17.1,8.2-17.1,13.8s4.6,13.8,17.1,13.8h71.5v238.9c0,94.5,36,140.5,110,140.5c22,0,39.8-4.1,57.7-13.4
			c11.6-6,12.6-14.5,9.9-19.9c-2.7-5.3-11-10.7-21.1-5.9l-0.1,0c-11,6.3-32.2,11.6-46.3,11.6c-31.6,0-53.2-10.9-66.1-33.2
			c-10.2-17.7-14.7-42.3-14.7-79.7V647.7H861c12.1,0,16.5-8.2,16.5-13.8s-4.4-13.8-16.5-13.8H753.6v-98.9c0-8-6.2-13.9-14.8-13.9
			c-8.3,0-14.3,5.8-14.3,13.9v98.9H653z"/>
	</g>
	<g>
		<g>
			<path class="st0" d="M552.7,608.1c-12,0-24.8,8.8-24.8,25v380.1c0,14.2,10.6,24.9,24.6,24.9c14,0,24.6-10.7,24.6-24.9V632.3
				C577.1,618.5,566.6,608.1,552.7,608.1z"/>
			<path class="st0" d="M552.5,1047.8c-19.1,0-34.2-15.2-34.2-34.5V633.1c0-17,12.9-34.6,34.4-34.6c19,0,33.9,14.9,33.9,33.9v380.9
				C586.7,1032.6,571.7,1047.8,552.5,1047.8z M552.7,617.7c-6.1,0-15.2,4.1-15.2,15.4v380.1c0,8.9,6.3,15.3,15,15.3
				c8.7,0,15-6.5,15-15.3V632.3C567.5,623.8,561.3,617.7,552.7,617.7z"/>
		</g>
		<g>
			
				<ellipse transform="matrix(0.9871 -0.1602 0.1602 0.9871 -78.6623 95.419)" class="st0" cx="552.5" cy="535.6" rx="32.6" ry="32.6"/>
			<path class="st0" d="M552.5,577.8c-23.3,0-42.2-18.9-42.2-42.2c0-23.3,18.9-42.2,42.2-42.2c23.3,0,42.2,18.9,42.2,42.2
				C594.7,558.9,575.8,577.8,552.5,577.8z M552.5,512.6c-12.7,0-23,10.3-23,23c0,12.7,10.3,23,23,23c12.7,0,23-10.3,23-23
				C575.5,522.9,565.2,512.6,552.5,512.6z"/>
		</g>
	</g>
	<g>
		<path class="st0" d="M1344.1,818.8c-1.7-104.7-58.5-182.1-152-207.2c-39.3-10.2-84.4-10.2-123.8,0
			c-86.1,23.9-146.8,101.8-151.1,193.7c-3.1,58.8,13,110,49.2,156.7c35.9,46,96.2,72.9,165.6,73.8c1.3,0,2.7,0,4,0
			c56.4,0,108-18.1,142.3-50.1c11.9-11.9,9.9-25.8,3-33.6c-8.9-10.1-24.1-11-35.3-2.3c-32.9,25.1-74.2,38.5-116.1,37.7
			c-1.2,0-2.4-0.1-3.6-0.1c-1.9-0.1-3.7-0.1-5.6-0.2c-0.2,0-0.4,0-0.6,0c-2.8-0.2-5.6-0.4-8.4-0.8c-0.5-0.1-0.9-0.1-1.4-0.2
			c-2.1-0.3-4.1-0.5-6.2-0.9c-39.6-6.2-74.8-25.2-99.2-54.2c-18.3-21.4-30.3-46.6-35.5-75.1h0c-2.4-11.4-3.8-23.3-3.8-35.5
			c0-25,5.5-48.7,15.2-70.1c18.8-45.1,55.4-79.3,102.3-91.9c29.9-8,64.4-8.3,94.5-0.8c61.7,16.6,102.7,63.1,114.4,127.1
			c2.5,11.5,3.8,23.4,3.8,35.6c-0.1,3.4-0.1,7.2-0.1,11.5c0,13.3,10.6,24.2,23.9,24.2c11,0,20.2-7.4,23.1-17.5c0,0,0-0.1,0-0.1
			c0.2-0.8,0.5-1.6,0.6-2.4C1344.2,832.7,1344.4,827.6,1344.1,818.8z"/>
		<path class="st0" d="M1136,1045.5c-1.4,0-2.8,0-4.1,0c-72.3-0.9-135.4-29.2-173-77.5c-37.7-48.5-54.5-101.8-51.2-163.1
			c4.4-96,68-177.4,158.1-202.4c41-10.7,87.9-10.7,128.7-0.1c97.9,26.2,157.4,107,159.2,216.2c0.3,9.3,0.1,15-0.6,19.1
			c-0.2,1.3-0.5,2.4-0.8,3.3l-0.1,0.3c0,0,0,0,0,0c-4.2,14.3-17.5,24.3-32.3,24.3c-9,0-17.4-3.5-23.7-9.8c-6.4-6.4-9.8-14.9-9.8-24
			c0-4.3,0-8.1,0.1-11.6c0-11.1-1.2-22.4-3.6-33.4l-0.1-0.3c-11.1-60.5-50.3-104.1-107.5-119.5c-28.4-7.1-61.1-6.8-89.5,0.8
			c-42.9,11.6-77.9,43.1-96,86.4l-0.1,0.3c-9.5,20.8-14.4,43.1-14.4,66.1c0,11.2,1.2,22.4,3.6,33.5l2.1,9.6
			c5.7,23,16.2,43.6,31.4,61.3c22.7,27,55.8,45.1,93.4,51c2,0.3,3.9,0.6,5.9,0.8l1.3,0.2c2.6,0.3,5.3,0.5,7.9,0.7l0.5,0
			c1.8,0.1,3.6,0.2,5.4,0.2c0.6,0,1.1,0,1.6,0.1c0.6,0,1.2,0.1,1.8,0.1c39.7,0.8,78.8-11.9,110.1-35.7c15.2-11.8,36-10.3,48.3,3.6
			c10.1,11.4,12.1,31.1-3.5,46.7l-0.2,0.2C1249,1026.3,1194.7,1045.5,1136,1045.5z M1130.3,613.6c-20.3,0-40.6,2.5-59.6,7.4
			c-82,22.8-139.9,97.1-143.9,184.9c-3,56.5,12.4,105.6,47.2,150.3c34.1,43.7,91.7,69.2,158.2,70.1c1.3,0,2.6,0,3.9,0
			c53.8,0,103.2-17.3,135.6-47.4c8-8.1,6.4-16,2.5-20.3c-5.5-6.2-15-6.7-22.2-1.1c-34.8,26.5-78.1,40.6-122.1,39.7
			c-0.8,0-1.6,0-2.4-0.1l-1.3-0.1c-1.9-0.1-3.9-0.1-5.8-0.2l-0.5,0c-3.1-0.2-6.1-0.5-9-0.8c-0.3,0-0.6-0.1-1-0.1l-0.5-0.1
			c-2.2-0.3-4.4-0.6-6.6-0.9c-42.1-6.6-79.4-27-105-57.5c-19.4-22.6-32-49.4-37.6-79.6l0-0.2c-0.6-3-1.2-5.9-1.7-8.9l-0.4-2.2h0.1
			c-1.3-8.6-1.9-17.3-1.9-25.9c0-25.7,5.4-50.6,16-73.9c20.4-48.7,60-84.2,108.6-97.4c31.4-8.4,67.6-8.7,99.3-0.8
			c64.8,17.5,109,66.5,121.5,134.5c2.6,12.3,4,25,4,37.5c-0.1,3.5-0.1,7.3-0.1,11.5c0,3.9,1.5,7.6,4.2,10.4
			c2.7,2.7,6.3,4.2,10.1,4.2c6.5,0,12.1-4.2,13.9-10.5l0.1-0.3c0.1-0.4,0.2-0.8,0.3-1.2c0.5-2.6,0.6-7.6,0.3-15.2l0-0.2
			c-1.7-100.2-55.8-174.2-144.9-198.1C1170.7,616,1150.5,613.6,1130.3,613.6z"/>
	</g>
	<g>
		<path class="st0" d="M1072.2,839.9c0-9-7.2-16.4-16-16.4c-4.4,0-8.6,1.8-11.6,5.1l-22.4,24.1c-0.1,0.1-0.1,0.1-0.2,0.2
			c-0.1,0.1-1.4,2.2-1.9,5.2c-0.3,1.4-0.5,2.7-0.5,4.1c0,9,7.2,16.4,16,16.4c0.1,0,0.2,0,0.4,0l0.3,0c1.4-0.1,2.8-0.3,4.2-0.7l0.1,0
			c1.7,0,3.4,0.3,5,1c0.4,0.2,0.9,0.4,1.3,0.6c1.3,0.7,2.4,1.6,3.4,2.7c0.3,0.4,0.6,0.8,1.1,1.4c0.1,0.2,0.3,0.3,0.4,0.5
			c3.4,4.2,11.3,12.3,25,19.8c6.8,3.7,14.3,6.8,22.2,9.2c5.6,1.7,11.5,3.1,17.7,4.2c6.5,1,13.5,1.6,20.7,1.6
			c7.2,0,14.2-0.6,20.7-1.6c6.1-1.1,12.1-2.5,17.7-4.2c7.9-2.5,15.4-5.5,22.2-9.2c13.8-7.5,21.6-15.6,25-19.8
			c0.1-0.2,0.3-0.3,0.4-0.5c0.4-0.5,0.8-1,1.1-1.4c1-1.1,2.2-2,3.4-2.7c0.4-0.2,0.9-0.4,1.3-0.6c1.6-0.7,3.2-1,5.1-1
			c1.3,0.4,2.7,0.7,4.2,0.7l0.3,0c0.1,0,0.2,0,0.3,0c8.8,0,16-7.4,16-16.4c0-1.3-0.2-2.7-0.5-3.9c-0.5-3.1-1.9-5.2-2-5.3
			c0-0.1-0.1-0.1-0.2-0.2l-22.4-24.1c-3.1-3.3-7.2-5.1-11.6-5.1c-8.8,0-16,7.4-16,16.4c0,2.5,0.6,5,1.7,7.3c0.8,1.5,1.7,3,2.9,4.2
			c-0.2,0.5-0.3,1-0.4,1.2c-4.8,6.9-10.6,12.1-16.8,16.2c-11.9,7.7-25.3,10.9-36.1,12.2c-5.2,0.7-10.7,1-16.4,1
			c-5.5,0-10.9-0.3-16-1c-10.8-1.2-24.4-4.4-36.4-12.2c-6.2-4-12-9.3-16.8-16.2c-0.1-0.2-0.2-0.6-0.4-1.2c1.2-1.2,2.2-2.6,2.9-4.2
			C1071.7,844.9,1072.2,842.4,1072.2,839.9z M1238.7,876.9L1238.7,876.9L1238.7,876.9C1238.7,876.9,1238.7,876.9,1238.7,876.9z"/>
		<path class="st0" d="M1137.3,922.7c-7.2,0-14.4-0.5-21.3-1.6c-6.4-1.1-12.5-2.6-18.2-4.4c-8.3-2.6-16-5.8-22.9-9.5
			c-14.3-7.8-22.5-16.3-26.2-20.7c-0.1-0.1-0.3-0.3-0.4-0.5c-0.4-0.5-0.8-0.9-1-1.3c-0.7-0.7-1.5-1.3-2.3-1.8
			c-0.3-0.2-0.6-0.3-0.9-0.4c-1-0.4-2-0.7-3.1-0.7c-1.5,0.4-3,0.7-4.6,0.7l-0.2,0c-0.3,0-0.4,0-0.6,0c-11,0-19.9-9.1-19.9-20.2
			c0-1.6,0.2-3.2,0.6-4.8c0.6-3.5,2.2-6,2.5-6.5c0.2-0.3,0.4-0.5,0.6-0.7l22.4-24.1c3.8-4.1,9-6.4,14.5-6.4c11,0,19.9,9.1,19.9,20.2
			c0,3.1-0.7,6.1-2.1,8.9c-0.5,1.1-1.1,2.1-1.8,3c4,5.3,8.9,9.9,14.7,13.7c11.9,7.7,25.5,10.6,34.8,11.6c10.3,1.3,21.3,1.3,31.5,0
			c9.2-1.1,22.7-4,34.5-11.6c5.8-3.8,10.7-8.4,14.7-13.7c-0.7-0.9-1.3-1.9-1.8-3c-1.4-2.8-2.1-5.8-2.1-8.9
			c0-11.2,8.9-20.2,19.9-20.2c5.5,0,10.6,2.3,14.4,6.3l22.4,24.1c0.2,0.2,0.4,0.4,0.5,0.7c0.3,0.5,1.9,3,2.5,6.7
			c0.4,1.5,0.6,3.1,0.6,4.7c0,11.2-8.9,20.2-19.9,20.2c-0.2,0-0.4,0-0.6,0l-0.2,0c-1.5-0.1-3.1-0.3-4.5-0.7
			c-1.2,0.1-2.1,0.3-3.1,0.7c-0.3,0.1-0.6,0.3-0.9,0.4c-0.8,0.5-1.6,1.1-2.3,1.8c-0.3,0.4-0.6,0.8-1,1.3l-0.5,0.5
			c-3.6,4.4-11.8,12.9-26.1,20.7c-6.9,3.8-14.6,7-22.9,9.5c-5.7,1.8-11.8,3.2-18.1,4.3C1151.7,922.1,1144.5,922.7,1137.3,922.7z
			 M1040.5,874c2.2,0,4.4,0.4,6.5,1.3c0.6,0.2,1.1,0.5,1.7,0.8c1.6,0.9,3.1,2.1,4.4,3.5l0.3,0.3c0.2,0.3,0.6,0.7,0.9,1.2l0.3,0.4
			c3.3,4,10.8,11.7,23.9,18.9c6.5,3.5,13.7,6.5,21.5,8.9c5.4,1.7,11.2,3,17.2,4.1c12.8,2,27.1,2,40.1,0c6-1.1,11.8-2.4,17.1-4.1
			c7.8-2.4,15.1-5.4,21.5-8.9c13.2-7.2,20.6-14.9,23.9-18.8l0.4-0.4c0.4-0.5,0.7-0.9,1-1.2l0.3-0.3c1.3-1.4,2.8-2.6,4.4-3.5
			c0.5-0.3,1.1-0.6,1.7-0.8c2.1-0.9,4.2-1.3,6.6-1.3l0.6,0l0.6,0.2c1,0.3,2.1,0.5,3.2,0.5l0.4,0c0,0,0,0,0,0
			c6.8,0,12.3-5.6,12.3-12.5c0-1-0.1-2-0.4-3l-0.1-0.3c-0.3-1.9-1-3.3-1.3-3.7l-22.2-24c-2.3-2.5-5.5-3.9-8.8-3.9
			c-6.7,0-12.2,5.6-12.2,12.5c0,1.9,0.4,3.8,1.3,5.6c0.6,1.2,1.3,2.3,2.2,3.2l1.5,1.6l-0.6,2.1c-0.2,0.6-0.3,1.1-0.4,1.4l-0.2,0.5
			l-0.3,0.4c-4.7,6.8-10.7,12.5-17.9,17.2c-13,8.5-27.7,11.6-37.7,12.8c-10.8,1.4-22.5,1.4-33.4,0c-10.1-1.1-24.9-4.3-38-12.8
			c-7.2-4.7-13.2-10.4-17.9-17.2l-0.3-0.4l-0.2-0.5c-0.1-0.2-0.2-0.7-0.4-1.4l-0.6-2.1l1.5-1.6c0.9-0.9,1.6-2,2.2-3.2
			c0.9-1.8,1.3-3.6,1.3-5.6c0-6.9-5.5-12.5-12.2-12.5c-3.4,0-6.5,1.4-8.8,3.9l-22.2,24c-0.2,0.4-1,1.8-1.3,3.6l-0.1,0.3
			c-0.3,1.1-0.4,2.1-0.4,3.1c0,6.9,5.5,12.5,12.2,12.5l0.4,0c1.1,0,2.2-0.2,3.2-0.5l0.4-0.1L1040.5,874z"/>
	</g>
</g>
</svg>
