<?xml version="1.0" encoding="utf-8"?>
<!-- Generator: Adobe Illustrator 22.1.0, SVG Export Plug-In . SVG Version: 6.00 Build 0)  -->
<svg version="1.1" id="레이어_1" xmlns="http://www.w3.org/2000/svg" xmlns:xlink="http://www.w3.org/1999/xlink" x="0px"
	 y="0px" viewBox="0 0 1536 1536" style="enable-background:new 0 0 1536 1536;" xml:space="preserve">
<style type="text/css">
	.st0{fill:#FFFFFF;}
	.st1{fill:#17C060;}
	.st2{opacity:0.333;fill:#17C060;}
	.st3{fill:url(#SVGID_1_);}
	.st4{fill:url(#SVGID_2_);}
	.st5{fill:url(#SVGID_3_);}
	.st6{opacity:0.5;fill:#17C060;}
	.st7{fill:none;}
</style>
<g>
	<rect x="0" y="0" class="st1" width="1536" height="1536"/>
</g>
<path class="st0" d="M1195.1,579.9L928.5,446.8c-23.6-11.8-51.9-7.1-70.5,11.6L592.4,725.5c-11.4,11.5-17.7,26.7-17.7,42.9v300.8
	l-145.6-73V659.6l248.7-248.5c11.5-11.5,17.9-26.8,17.9-43.1c0-16.3-6.3-31.6-17.9-43.1c-23.8-23.7-62.4-23.7-86.2,0L325.1,591.3
	c-11.5,11.5-17.9,26.8-17.9,43.1v399.5c0,23.2,12.9,44,33.6,54.4l267.5,134.1c8.4,4.2,17.9,6.5,27.3,6.5c11.3,0,22.4-3.1,32-9.1
	c18.1-11.2,28.9-30.5,28.9-51.8V793.5l216.9-218.2l193.5,96.6v263.3l-178.4-89.1c-30-15-66.7-2.8-81.7,27.2
	c-7.3,14.5-8.5,31.1-3.3,46.5c5.1,15.4,16,27.9,30.6,35.2l266.6,133.2c19,9.5,41.2,8.5,59.3-2.7c18.1-11.2,28.9-30.5,28.9-51.8
	V634.4C1228.8,611.2,1215.9,590.3,1195.1,579.9z"/>
</svg>
