<?xml version="1.0" encoding="utf-8"?>
<!-- Generator: Adobe Illustrator 22.1.0, SVG Export Plug-In . SVG Version: 6.00 Build 0)  -->
<svg version="1.1" id="레이어_1" xmlns="http://www.w3.org/2000/svg" xmlns:xlink="http://www.w3.org/1999/xlink" x="0px"
	 y="0px" viewBox="0 0 500 500" style="enable-background:new 0 0 500 500;" xml:space="preserve">
<style type="text/css">
	.st0{fill:#FFFFFF;}
	.st1{fill:#17C060;}
	.st2{opacity:0.333;fill:#17C060;}
	.st3{fill:url(#SVGID_1_);}
	.st4{fill:url(#SVGID_2_);}
	.st5{fill:url(#SVGID_3_);}
	.st6{opacity:0.5;fill:#17C060;}
	.st7{fill:none;}
</style>
<g>
	<path class="st0" d="M500,404c0,52.8-43.2,96-96,96H96c-52.8,0-96-43.2-96-96V96C0,43.2,43.2,0,96,0h308c52.8,0,96,43.2,96,96V404z
		"/>
</g>
<g>
	<path class="st1" d="M350,115c19.3,0,35,15.7,35,35v179.3V350c0,19.3-15.7,35-35,35c-9.3,0-18.1-3.6-24.7-10.2c0,0,0,0,0,0
		c-6.6-6.6-10.2-15.4-10.2-24.7V229.3V150C315,130.7,330.7,115,350,115 M350,100c-27.6,0-50,22.4-50,50v79.3V350
		c0,13.8,5.6,26.3,14.6,35.4c0,0,0,0,0,0c9,9,21.5,14.6,35.4,14.6c27.6,0,50-22.4,50-50v-20.7V150C400,122.4,377.6,100,350,100
		L350,100z"/>
</g>
<g>
	<path class="st1" d="M150,115c9.3,0,18.1,3.6,24.7,10.3c6.6,6.6,10.3,15.4,10.3,24.7v120.7V350c0,19.3-15.7,35-35,35
		s-35-15.7-35-35V170.7V150C115,130.7,130.7,115,150,115 M150,100c-27.6,0-50,22.4-50,50v20.7V350c0,27.6,22.4,50,50,50
		s50-22.4,50-50v-79.3V150c0-13.8-5.6-26.3-14.6-35.4C176.3,105.6,163.8,100,150,100L150,100z"/>
</g>
<g>
	<path class="st1" d="M150,115c9.3,0,18.1,3.6,24.7,10.3c6.6,6.6,10.3,15.4,10.3,24.7v120.7V350c0,19.3-15.7,35-35,35
		s-35-15.7-35-35V170.7V150C115,130.7,130.7,115,150,115 M150,100c-27.6,0-50,22.4-50,50v20.7V350c0,27.6,22.4,50,50,50
		s50-22.4,50-50v-79.3V150c0-13.8-5.6-26.3-14.6-35.4C176.3,105.6,163.8,100,150,100L150,100z"/>
</g>
<g>
	<path class="st1" d="M150,115c9.3,0,18.1,3.6,24.7,10.3l14.6,14.6l100,100l85.4,85.4c6.6,6.6,10.3,15.4,10.3,24.7
		c0,19.3-15.7,35-35,35c-9.3,0-18.1-3.6-24.7-10.2c0,0,0,0-0.1-0.1l-14.6-14.6l-100-100l-85.4-85.4c-6.6-6.6-10.3-15.4-10.3-24.7
		C115,130.7,130.7,115,150,115 M150,100c-27.6,0-50,22.4-50,50c0,13.8,5.6,26.3,14.6,35.4c0,0,0,0,0,0l85.4,85.4l100,100l14.6,14.6
		c0,0,0,0,0,0c9,9,21.5,14.6,35.4,14.6c27.6,0,50-22.4,50-50c0-13.8-5.6-26.3-14.6-35.4L300,229.3l-100-100l-14.6-14.6
		C176.3,105.6,163.8,100,150,100L150,100z"/>
</g>
</svg>
