<?xml version="1.0" encoding="utf-8"?>
<!-- Generator: Adobe Illustrator 22.1.0, SVG Export Plug-In . SVG Version: 6.00 Build 0)  -->
<svg version="1.1" id="레이어_1" xmlns="http://www.w3.org/2000/svg" xmlns:xlink="http://www.w3.org/1999/xlink" x="0px"
	 y="0px" viewBox="0 0 500 500" style="enable-background:new 0 0 500 500;" xml:space="preserve">
<style type="text/css">
	.st0{fill:#FFFFFF;}
	.st1{fill:#17C060;}
	.st2{opacity:0.333;fill:#17C060;}
	.st3{fill:url(#SVGID_1_);}
	.st4{fill:url(#SVGID_2_);}
	.st5{fill:url(#SVGID_3_);}
	.st6{opacity:0.5;fill:#17C060;}
	.st7{fill:none;}
</style>
<g>
	<path class="st0" d="M500,404c0,52.8-43.2,96-96,96H96c-52.8,0-96-43.2-96-96V96C0,43.2,43.2,0,96,0h308c52.8,0,96,43.2,96,96V404z
		"/>
</g>
<g>
	<path class="st1" d="M258,106c-4.4-3.3-11.6-3.3-16,0l-56.7,42.5c-4.4,3.3-8,1.5-8-4v-15.8c0-5.5-4.5-10-10-10h-52.7
		c-5.5,0-10,4.5-10,10v70.3c0,5.5-3.6,12.7-8,16L58,244c-4.4,3.3-3.5,6,2,6h34.5c5.5,0,10,4.2,10,9.4s0,13.9,0,19.4V390
		c0,5.5,4.5,10,10,10h52.7c5.5,0,10-4.5,10-10c0,0,0-15,0-65c0-41.1,32.8-75,72.7-75s72.7,33.9,72.7,75c0,50,0,65,0,65
		c0,5.5,4.5,10,10,10h52.7c5.5,0,10-4.5,10-10V260c0-5.5,4.5-10,10-10H440c5.5,0,6.4-2.7,2-6L258,106z"/>
</g>
</svg>
