<?xml version="1.0" encoding="utf-8"?>
<!-- Generator: Adobe Illustrator 22.1.0, SVG Export Plug-In . SVG Version: 6.00 Build 0)  -->
<svg version="1.1" id="레이어_1" xmlns="http://www.w3.org/2000/svg" xmlns:xlink="http://www.w3.org/1999/xlink" x="0px"
	 y="0px" viewBox="0 0 500 500" style="enable-background:new 0 0 500 500;" xml:space="preserve">
<style type="text/css">
	.st0{fill:#FFFFFF;}
	.st1{fill:#17C060;}
	.st2{opacity:0.333;fill:#17C060;}
	.st3{fill:url(#SVGID_1_);}
	.st4{fill:url(#SVGID_2_);}
	.st5{fill:url(#SVGID_3_);}
	.st6{opacity:0.5;fill:#17C060;}
	.st7{fill:none;}
</style>
<g>
	<path class="st0" d="M500,404c0,52.8-43.2,96-96,96H96c-52.8,0-96-43.2-96-96V96C0,43.2,43.2,0,96,0h308c52.8,0,96,43.2,96,96V404z
		"/>
</g>
<path class="st2" d="M150,300c27.6,0,50,22.4,50,50v-79.3l-85.4-85.4c0,0,0,0,0,0L100,170.7V350C100,322.4,122.4,300,150,300z"/>
<path class="st2" d="M150,300c27.6,0,50,22.4,50,50v-79.3l-85.4-85.4c0,0,0,0,0,0L100,170.7V350C100,322.4,122.4,300,150,300z"/>
<circle class="st2" cx="150" cy="350" r="50"/>
<circle class="st2" cx="150" cy="350" r="50"/>
<polygon class="st2" points="300,229.3 200,129.3 200,150 200,270.7 300,370.7 300,350 "/>
<polygon class="st2" points="300,229.3 200,129.3 200,150 200,270.7 300,370.7 300,350 "/>
<path class="st2" d="M200,129.3l-14.6-14.6c9,9,14.6,21.5,14.6,35.4V129.3z"/>
<path class="st2" d="M200,129.3l-14.6-14.6c9,9,14.6,21.5,14.6,35.4V129.3z"/>
<path class="st2" d="M100,150v20.7l14.6,14.6C105.6,176.3,100,163.8,100,150z"/>
<path class="st2" d="M100,150v20.7l14.6,14.6C105.6,176.3,100,163.8,100,150z"/>
<path class="st2" d="M150,200c-13.8,0-26.3-5.6-35.4-14.6l85.4,85.4V150C200,177.6,177.6,200,150,200z"/>
<path class="st2" d="M150,200c-13.8,0-26.3-5.6-35.4-14.6l85.4,85.4V150C200,177.6,177.6,200,150,200z"/>
<path class="st2" d="M200,150c0-13.8-5.6-26.3-14.6-35.4c-9-9-21.5-14.6-35.4-14.6c-27.6,0-50,22.4-50,50c0,13.8,5.6,26.3,14.6,35.4
	c0,0,0,0,0,0c9,9,21.5,14.6,35.4,14.6C177.6,200,200,177.6,200,150z"/>
<path class="st2" d="M200,150c0-13.8-5.6-26.3-14.6-35.4c-9-9-21.5-14.6-35.4-14.6c-27.6,0-50,22.4-50,50c0,13.8,5.6,26.3,14.6,35.4
	c0,0,0,0,0,0c9,9,21.5,14.6,35.4,14.6C177.6,200,200,177.6,200,150z"/>
<path class="st2" d="M200,150c0-13.8-5.6-26.3-14.6-35.4c-9-9-21.5-14.6-35.4-14.6c-27.6,0-50,22.4-50,50c0,13.8,5.6,26.3,14.6,35.4
	c0,0,0,0,0,0c9,9,21.5,14.6,35.4,14.6C177.6,200,200,177.6,200,150z"/>
<path class="st2" d="M200,150c0-13.8-5.6-26.3-14.6-35.4c-9-9-21.5-14.6-35.4-14.6c-27.6,0-50,22.4-50,50c0,13.8,5.6,26.3,14.6,35.4
	c0,0,0,0,0,0c9,9,21.5,14.6,35.4,14.6C177.6,200,200,177.6,200,150z"/>
<path class="st1" d="M200,150c0-13.8-5.6-26.3-14.6-35.4c-9-9-21.5-14.6-35.4-14.6c-27.6,0-50,22.4-50,50c0,13.8,5.6,26.3,14.6,35.4
	c0,0,0,0,0,0c9,9,21.5,14.6,35.4,14.6C177.6,200,200,177.6,200,150z"/>
<path class="st2" d="M350,200c-27.6,0-50-22.4-50-50v79.3l85.4,85.4l14.6,14.6V150C400,177.6,377.6,200,350,200z"/>
<path class="st2" d="M350,200c-27.6,0-50-22.4-50-50v79.3l85.4,85.4l14.6,14.6V150C400,177.6,377.6,200,350,200z"/>
<circle class="st2" cx="350" cy="150" r="50"/>
<circle class="st2" cx="350" cy="150" r="50"/>
<path class="st2" d="M350,300c13.8,0,26.3,5.6,35.4,14.6L300,229.3V350C300,322.4,322.4,300,350,300z"/>
<path class="st2" d="M350,300c13.8,0,26.3,5.6,35.4,14.6L300,229.3V350C300,322.4,322.4,300,350,300z"/>
<path class="st1" d="M350,300c13.8,0,26.3,5.6,35.4,14.6L300,229.3V350C300,322.4,322.4,300,350,300z"/>
<path class="st2" d="M400,350v-20.7l-14.6-14.6C394.4,323.7,400,336.2,400,350z"/>
<path class="st2" d="M400,350v-20.7l-14.6-14.6C394.4,323.7,400,336.2,400,350z"/>
<path class="st2" d="M300,370.7l14.6,14.6c-9-9-14.6-21.5-14.6-35.4V370.7z"/>
<path class="st2" d="M300,370.7l14.6,14.6c-9-9-14.6-21.5-14.6-35.4V370.7z"/>
<path class="st2" d="M350,300c-27.6,0-50,22.4-50,50c0,13.8,5.6,26.3,14.6,35.4c0,0,0,0,0,0c9,9,21.5,14.6,35.4,14.6
	c27.6,0,50-22.4,50-50c0-13.8-5.6-26.3-14.6-35.4C376.3,305.6,363.8,300,350,300z"/>
<path class="st2" d="M350,300c-27.6,0-50,22.4-50,50c0,13.8,5.6,26.3,14.6,35.4c0,0,0,0,0,0c9,9,21.5,14.6,35.4,14.6
	c27.6,0,50-22.4,50-50c0-13.8-5.6-26.3-14.6-35.4C376.3,305.6,363.8,300,350,300z"/>
<path class="st2" d="M350,300c-27.6,0-50,22.4-50,50c0,13.8,5.6,26.3,14.6,35.4c0,0,0,0,0,0c9,9,21.5,14.6,35.4,14.6
	c27.6,0,50-22.4,50-50c0-13.8-5.6-26.3-14.6-35.4C376.3,305.6,363.8,300,350,300z"/>
<path class="st1" d="M350,300c-27.6,0-50,22.4-50,50c0,13.8,5.6,26.3,14.6,35.4c0,0,0,0,0,0c9,9,21.5,14.6,35.4,14.6
	c27.6,0,50-22.4,50-50c0-13.8-5.6-26.3-14.6-35.4C376.3,305.6,363.8,300,350,300z"/>
<path class="st1" d="M150,200c-13.8,0-26.3-5.6-35.4-14.6l85.4,85.4V150C200,177.6,177.6,200,150,200z"/>
</svg>
