<?xml version="1.0" encoding="utf-8"?>
<!-- Generator: Adobe Illustrator 22.1.0, SVG Export Plug-In . SVG Version: 6.00 Build 0)  -->
<svg version="1.1" id="레이어_1" xmlns="http://www.w3.org/2000/svg" xmlns:xlink="http://www.w3.org/1999/xlink" x="0px"
	 y="0px" viewBox="0 0 500 500" style="enable-background:new 0 0 500 500;" xml:space="preserve">
<style type="text/css">
	.st0{fill:#FFFFFF;}
	.st1{fill:#17C060;}
	.st2{opacity:0.333;fill:#17C060;}
	.st3{fill:url(#SVGID_1_);}
	.st4{fill:url(#SVGID_2_);}
	.st5{fill:url(#SVGID_3_);}
	.st6{opacity:0.5;fill:#17C060;}
	.st7{fill:none;}
</style>
<g>
	<path class="st0" d="M500,404c0,52.8-43.2,96-96,96H96c-52.8,0-96-43.2-96-96V96C0,43.2,43.2,0,96,0h308c52.8,0,96,43.2,96,96V404z
		"/>
</g>
<g>
	<path class="st1" d="M257.1,97.1c-3.9-3.9-10.3-3.9-14.1,0L107.1,232.9c-3.9,3.9-7.1,11.6-7.1,17.1v130c0,5.5,4.5,10,10,10h80
		c5.5,0,10-4.5,10-10v-80c0-5.5,4.5-10,10-10h80c5.5,0,10,4.5,10,10v80c0,5.5,4.5,10,10,10h80c5.5,0,10-4.5,10-10V250
		c0-5.5-3.2-13.2-7.1-17.1L257.1,97.1z"/>
</g>
</svg>
