<?xml version="1.0" encoding="utf-8"?>
<!-- Generator: Adobe Illustrator 22.1.0, SVG Export Plug-In . SVG Version: 6.00 Build 0)  -->
<svg version="1.1" id="레이어_1" xmlns="http://www.w3.org/2000/svg" xmlns:xlink="http://www.w3.org/1999/xlink" x="0px"
	 y="0px" viewBox="0 0 500 500" style="enable-background:new 0 0 500 500;" xml:space="preserve">
<style type="text/css">
	.st0{fill:#FFFFFF;}
	.st1{fill:#17C060;}
	.st2{opacity:0.333;fill:#17C060;}
	.st3{fill:url(#SVGID_1_);}
	.st4{fill:url(#SVGID_2_);}
	.st5{fill:url(#SVGID_3_);}
	.st6{opacity:0.5;fill:#17C060;}
	.st7{fill:none;}
</style>
<g>
	<path class="st0" d="M500,404c0,52.8-43.2,96-96,96H96c-52.8,0-96-43.2-96-96V96C0,43.2,43.2,0,96,0h308c52.8,0,96,43.2,96,96V404z
		"/>
</g>
<g>
	<path class="st1" d="M150,392.5c-23.4,0-42.5-19.1-42.5-42.5V150c0-23.4,19.1-42.5,42.5-42.5c11.4,0,22,4.4,30.1,12.4
		c8,8,12.4,18.7,12.4,30.1v200C192.5,373.4,173.4,392.5,150,392.5z"/>
	<path class="st1" d="M150,115c9.3,0,18.1,3.6,24.7,10.3c6.6,6.6,10.3,15.4,10.3,24.7v120.7V350c0,19.3-15.7,35-35,35
		s-35-15.7-35-35V170.7V150C115,130.7,130.7,115,150,115 M150,100c-27.6,0-50,22.4-50,50v20.7V350c0,27.6,22.4,50,50,50
		s50-22.4,50-50v-79.3V150c0-13.8-5.6-26.3-14.6-35.4C176.3,105.6,163.8,100,150,100L150,100z"/>
</g>
<g>
	<path class="st1" d="M350,392.5c-11.4,0-22-4.4-30.1-12.4c-8-8-12.4-18.7-12.4-30.1V150c0-23.4,19.1-42.5,42.5-42.5
		s42.5,19.1,42.5,42.5v200C392.5,373.4,373.4,392.5,350,392.5z"/>
	<path class="st1" d="M350,115c19.3,0,35,15.7,35,35v179.3V350c0,19.3-15.7,35-35,35c-9.3,0-18.1-3.6-24.7-10.2c0,0,0,0,0,0
		c-6.6-6.6-10.2-15.4-10.2-24.7V229.3V150C315,130.7,330.7,115,350,115 M350,100c-27.6,0-50,22.4-50,50v79.3V350
		c0,13.8,5.6,26.3,14.6,35.4c0,0,0,0,0,0c9,9,21.5,14.6,35.4,14.6c27.6,0,50-22.4,50-50v-20.7V150C400,122.4,377.6,100,350,100
		L350,100z"/>
</g>
<polygon class="st1" points="289.4,239.9 200,150.5 200,249.5 210.6,260.1 300,349.5 300,250.5 "/>
<polygon class="st1" points="200,270.7 200,270.7 300,370.7 314.6,385.4 300,370.7 "/>
<polygon class="st1" points="300,229.3 300,229.3 200,129.3 185.4,114.6 200,129.3 "/>
<path class="st1" d="M300,349.5l-89.4-89.4L200,249.5v21.2l100,100l14.6,14.6c-9-9-14.6-21.5-14.6-35.4V349.5z"/>
<path class="st1" d="M200,150.5l89.4,89.4l10.6,10.6v-21.2l-100-100l-14.6-14.6c9,9,14.6,21.5,14.6,35.4V150.5z"/>
<path class="st7" d="M385,150c0-19.3-15.7-35-35-35s-35,15.7-35,35v79.3v15l70,70V150z"/>
<path class="st1" d="M315,265.5V350c0,9.3,3.6,18.1,10.3,24.7c0,0,0,0,0,0c6.6,6.6,15.4,10.3,24.7,10.3c19.3,0,35-15.7,35-35
	c0-9.3-3.6-18.1-10.3-24.7L315,265.5z"/>
<polygon class="st7" points="385,314.3 385,314.3 315,244.3 315,244.3 "/>
<path class="st7" d="M315,265.5l59.7,59.7c6.6,6.6,10.3,15.4,10.3,24.7v-20.7v-15l-70-70V265.5z"/>
<path class="st1" d="M314.6,385.4C314.6,385.4,314.6,385.4,314.6,385.4c5.1,5.1,11.3,9.1,18.2,11.6
	C325.9,394.4,319.7,390.4,314.6,385.4C314.6,385.4,314.6,385.4,314.6,385.4z"/>
<path class="st1" d="M350,100c-27.6,0-50,22.4-50,50v79.3l15,15v-15V150c0-19.3,15.7-35,35-35s35,15.7,35,35v164.3l0.4,0.4
	c9,9,14.6,21.5,14.6,35.4v-20.7l0,0V150C400,122.4,377.6,100,350,100z"/>
<path class="st1" d="M315,265.5l-15-15v99l10.6,10.6l14.6,14.6l0,0c-6.6-6.6-10.3-15.4-10.3-24.7V265.5z"/>
<polygon class="st1" points="385.4,314.6 385,314.3 385,314.3 "/>
<polygon class="st1" points="315,244.3 315,244.3 300,229.3 300,229.3 "/>
<path class="st1" d="M385,314.3v15V350c0,19.3-15.7,35-35,35c-9.3,0-18.1-3.6-24.7-10.3c0,0,0,0,0,0l0,0l-14.6-14.6L300,349.5v0.5
	c0,13.8,5.6,26.3,14.6,35.4c0,0,0,0,0,0c5.1,5.1,11.3,9.1,18.2,11.6c5.4,2,11.2,3,17.2,3c27.6,0,50-22.4,50-50
	c0-13.8-5.6-26.3-14.6-35.4L385,314.3z"/>
<polygon class="st1" points="315,244.3 300,229.3 300,250.5 315,265.5 "/>
<path class="st7" d="M115,185.7V350c0,19.3,15.7,35,35,35s35-15.7,35-35v-79.3v-15L157.3,228L115,185.7z"/>
<path class="st7" d="M152.6,100.1c1.7,0.1,3.4,0.3,5,0.5C156,100.3,154.3,100.2,152.6,100.1z"/>
<path class="st7" d="M162.5,101.6c8,2.1,15.2,6,21.1,11.4C177.7,107.6,170.5,103.6,162.5,101.6z"/>
<polygon class="st7" points="115,185.7 115,185.7 157.3,228 "/>
<path class="st0" d="M185,234.5V150c0-9.3-3.6-18.1-10.3-24.7c-4.1-4.1-9.1-7.1-14.6-8.8c-1.1-0.3-2.2-0.6-3.3-0.8
	c-2.2-0.4-4.5-0.7-6.9-0.7c-19.3,0-35,15.7-35,35c0,9.3,3.6,18.1,10.3,24.7L185,234.5z"/>
<path class="st7" d="M157.6,100.6c1.7,0.3,3.3,0.6,4.9,1C160.9,101.2,159.3,100.8,157.6,100.6z"/>
<polygon class="st7" points="185,255.7 185,255.7 157.3,228 "/>
<path class="st7" d="M125.3,174.7c-6.6-6.6-10.3-15.4-10.3-24.7v20.7v15l42.3,42.3l27.7,27.7v-21.2L125.3,174.7z"/>
<path class="st1" d="M185,270.7V350c0,19.3-15.7,35-35,35s-35-15.7-35-35V185.7l-0.4-0.4c0,0,0,0,0,0c-2.3-2.3-4.3-4.7-6.1-7.4
	c-4.9-7.3-8-16-8.5-25.4c0-0.9-0.1-1.7-0.1-2.6v20.7l0,0V350c0,27.6,22.4,50,50,50s50-22.4,50-50v-79.3l-15-15V270.7z"/>
<path class="st1" d="M156.9,115.7c1.1,0.2,2.2,0.5,3.3,0.8C159.1,116.2,158,115.9,156.9,115.7z"/>
<path class="st1" d="M189.4,139.9l-14.6-14.6c-4.1-4.1-9.1-7.1-14.6-8.8c5.4,1.6,10.4,4.6,14.6,8.8c6.6,6.6,10.3,15.4,10.3,24.7
	v84.5l15,15v-99L189.4,139.9z"/>
<path class="st1" d="M108.5,178c-4.9-7.3-8-16-8.5-25.4C100.5,161.9,103.6,170.6,108.5,178z"/>
<polygon class="st1" points="114.6,185.4 114.6,185.4 114.6,185.4 115,185.7 115,185.7 "/>
<polygon class="st1" points="185,255.7 185,255.7 200,270.7 200,270.7 "/>
<path class="st1" d="M108.5,178c1.8,2.7,3.8,5.1,6.1,7.4c0,0,0,0,0,0l0.4,0.4v-15V150c0-19.3,15.7-35,35-35c2.3,0,4.6,0.2,6.9,0.7
	c1.1,0.2,2.2,0.5,3.3,0.8c5.4,1.6,10.4,4.6,14.6,8.8l14.6,14.6l10.6,10.6V150c0-13.8-5.6-26.3-14.6-35.4c-0.6-0.6-1.1-1.1-1.7-1.7
	c-5.9-5.4-13.1-9.4-21.1-11.4c-1.6-0.4-3.2-0.7-4.9-1c-1.7-0.3-3.3-0.4-5-0.5c-0.9,0-1.7-0.1-2.6-0.1c-27.6,0-50,22.4-50,50
	c0,0.9,0,1.7,0.1,2.6C100.5,161.9,103.6,170.6,108.5,178z"/>
<polygon class="st1" points="185,255.7 200,270.7 200,249.5 185,234.5 "/>
<circle class="st1" cx="150" cy="150" r="12.5"/>
</svg>
