<?xml version="1.0" encoding="utf-8"?>
<!-- Generator: Adobe Illustrator 22.1.0, SVG Export Plug-In . SVG Version: 6.00 Build 0)  -->
<svg version="1.1" id="레이어_1" xmlns="http://www.w3.org/2000/svg" xmlns:xlink="http://www.w3.org/1999/xlink" x="0px"
	 y="0px" viewBox="0 0 500 500" style="enable-background:new 0 0 500 500;" xml:space="preserve">
<style type="text/css">
	.st0{fill:#FFFFFF;}
	.st1{fill:#17C060;}
	.st2{opacity:0.333;fill:#17C060;}
	.st3{fill:url(#SVGID_1_);}
	.st4{fill:url(#SVGID_2_);}
	.st5{fill:url(#SVGID_3_);}
	.st6{opacity:0.5;fill:#17C060;}
	.st7{fill:none;}
</style>
<g>
	<path class="st0" d="M500,404c0,52.8-43.2,96-96,96H96c-52.8,0-96-43.2-96-96V96C0,43.2,43.2,0,96,0h308c52.8,0,96,43.2,96,96V404z
		"/>
</g>
<path class="st1" d="M389,188.8l-86.8-43.3c-7.7-3.8-16.9-2.3-22.9,3.8l-86.5,87c-3.7,3.7-5.8,8.7-5.8,14v97.9l-47.4-23.8V214.7
	l81-80.9c3.7-3.7,5.8-8.7,5.8-14c0-5.3-2.1-10.3-5.8-14c-7.7-7.7-20.3-7.7-28,0l-86.8,86.7c-3.7,3.7-5.8,8.7-5.8,14v130
	c0,7.5,4.2,14.3,10.9,17.7l87.1,43.6c2.7,1.4,5.8,2.1,8.9,2.1c3.7,0,7.3-1,10.4-3c5.9-3.6,9.4-9.9,9.4-16.9V258.3l70.6-71l63,31.5
	v85.7l-58.1-29c-9.8-4.9-21.7-0.9-26.6,8.9c-2.4,4.7-2.8,10.1-1.1,15.1c1.7,5,5.2,9.1,9.9,11.5l86.8,43.3c6.2,3.1,13.4,2.8,19.3-0.9
	c5.9-3.6,9.4-9.9,9.4-16.9v-130C400,198.9,395.8,192.2,389,188.8z"/>
</svg>
