<?xml version="1.0" encoding="utf-8"?>
<!-- Generator: Adobe Illustrator 22.1.0, SVG Export Plug-In . SVG Version: 6.00 Build 0)  -->
<svg version="1.1" id="레이어_1" xmlns="http://www.w3.org/2000/svg" xmlns:xlink="http://www.w3.org/1999/xlink" x="0px"
	 y="0px" viewBox="0 0 500 500" style="enable-background:new 0 0 500 500;" xml:space="preserve">
<style type="text/css">
	.st0{fill:#FFFFFF;}
	.st1{fill:#17C060;}
	.st2{opacity:0.333;fill:#17C060;}
	.st3{fill:url(#SVGID_1_);}
	.st4{fill:url(#SVGID_2_);}
	.st5{fill:url(#SVGID_3_);}
	.st6{opacity:0.5;fill:#17C060;}
	.st7{fill:none;}
</style>
<g>
	<path class="st0" d="M500,404c0,52.8-43.2,96-96,96H96c-52.8,0-96-43.2-96-96V96C0,43.2,43.2,0,96,0h308c52.8,0,96,43.2,96,96V404z
		"/>
</g>
<g>
	<path class="st1" d="M300,390h90c5.5,0,10-4.5,10-10V250c0-5.5-3.2-13.2-7.1-17.1L257.1,97.1c-3.9-3.9-10.3-3.9-14.1,0L107.1,232.9
		c-3.9,3.9-7.1,11.6-7.1,17.1v130c0,5.5,4.5,10,10,10h90"/>
</g>
<path class="st0" d="M296.9,307.1c-6.2,4.7-13.4,8.5-21.2,11.3c-14.1,5-25.5,5.1-25.6,5.1c-9.7,0-19.1-1.9-27.9-5.6
	c-7.2-3-14.1-7.2-20.5-12.6c-11.5-9.6-17.4-19.4-17.4-19.5l0,0l-19.4,11.4c0.8,1.3,8.1,13.3,22.2,25.2c8.1,6.8,17,12.2,26.3,16.1
	c11.6,4.9,24,7.3,36.7,7.3c1.5,0,15.6-0.2,33-6.4c10-3.6,19.2-8.4,27.2-14.4c10.1-7.5,18.5-16.9,25-27.9l-19.4-11.4
	C310.9,294.3,304.5,301.4,296.9,307.1z"/>
</svg>
