<?xml version="1.0" encoding="utf-8"?>
<!-- Generator: Adobe Illustrator 22.1.0, SVG Export Plug-In . SVG Version: 6.00 Build 0)  -->
<svg version="1.1" id="레이어_1" xmlns="http://www.w3.org/2000/svg" xmlns:xlink="http://www.w3.org/1999/xlink" x="0px"
	 y="0px" viewBox="0 0 500 500" style="enable-background:new 0 0 500 500;" xml:space="preserve">
<style type="text/css">
	.st0{fill:#FFFFFF;}
	.st1{fill:#17C060;}
	.st2{opacity:0.333;fill:#17C060;}
	.st3{fill:url(#SVGID_1_);}
	.st4{fill:url(#SVGID_2_);}
	.st5{fill:url(#SVGID_3_);}
	.st6{opacity:0.5;fill:#17C060;}
	.st7{fill:none;}
</style>
<g>
	<path class="st0" d="M500,404c0,52.8-43.2,96-96,96H96c-52.8,0-96-43.2-96-96V96C0,43.2,43.2,0,96,0h308c52.8,0,96,43.2,96,96V404z
		"/>
</g>
<path class="st1" d="M117.5,130.2c25.5-5.9,57-7.3,84.5-4.9l0,24.5c16.7-13.7,47.2-23.5,71.7-23.5c64.3,0,86.9,27.1,86.9,100.7
	l-0.1,94.3c11.3,4.4,21.6,10.3,27,16.7l-4.9,37.8l-112.9-0.1l-4.9-37.8c4.9-6.4,15.2-12.3,27-16.7l0.1-97.2
	c0-37.3-12.7-44.7-36.8-44.7c-19.2,0-34.9,7.3-46.7,15.7l-0.1,126.2c11.3,4.4,21.6,10.3,27,16.7l-4.9,37.8l-112.9-0.1l-4.9-37.8
	c4.9-6.4,15.2-12.3,27-16.7l0.1-136.5c-11.3-3.9-20.6-9.8-27-16.7L117.5,130.2z"/>
</svg>
