<?xml version="1.0" encoding="utf-8"?>
<!-- Generator: Adobe Illustrator 22.1.0, SVG Export Plug-In . SVG Version: 6.00 Build 0)  -->
<svg version="1.1" id="레이어_1" xmlns="http://www.w3.org/2000/svg" xmlns:xlink="http://www.w3.org/1999/xlink" x="0px"
	 y="0px" viewBox="0 0 500 500" style="enable-background:new 0 0 500 500;" xml:space="preserve">
<style type="text/css">
	.st0{fill:#FFFFFF;}
	.st1{fill:#17C060;}
	.st2{opacity:0.333;fill:#17C060;}
	.st3{fill:url(#SVGID_1_);}
	.st4{fill:url(#SVGID_2_);}
	.st5{fill:url(#SVGID_3_);}
	.st6{opacity:0.5;fill:#17C060;}
	.st7{fill:none;}
</style>
<g>
	<path class="st0" d="M500,404c0,52.8-43.2,96-96,96H96c-52.8,0-96-43.2-96-96V96C0,43.2,43.2,0,96,0h308c52.8,0,96,43.2,96,96V404z
		"/>
</g>
<g>
	<g>
		<path class="st1" d="M115,388.2l-5.4-41.7c5.4-7,16.8-13.5,29.8-18.4l0.1-150.4c-12.4-4.3-22.7-10.8-29.7-18.4l5.4-41.7
			c28.1-6.5,62.8-8.1,93.1-5.4l0,27c18.4-15.1,52-25.9,79-25.9c70.9,0,95.7,29.8,95.7,111l-0.1,103.9c12.4,4.9,23.8,11.4,29.7,18.4
			l-5.4,41.7"/>
	</g>
	<g>
		<path class="st0" d="M319,389v-82.3c0-17.6-10.2-42.2-22.6-54.6l-12.8-12.8c-12.4-12.4-32.8-12.4-45.3,0l-12.8,12.8
			c-12.4,12.4-22.6,37-22.6,54.6V389"/>
	</g>
</g>
</svg>
