<svg id="레이어_1" data-name="레이어 1" xmlns="http://www.w3.org/2000/svg" viewBox="0 0 1600 1200"><title>logo_800*600</title><path d="M376.75,639.66l-.16.08a22.21,22.21,0,0,1-9,2.25c-12.9,0-15.54-9-15.54-22.53v-50h21.33c3.7,0,5.7-2.62,5.7-5.09s-2-5.1-5.7-5.1H352V539.83a5.11,5.11,0,0,0-5.32-5.11,5,5,0,0,0-5.21,5.11v19.46H328c-3.79,0-5.82,2.63-5.82,5.1s2,5.09,5.82,5.09h13.49v50c0,21.71,8.77,32.72,26.07,32.72A27.82,27.82,0,0,0,381.07,649c3.61-1.87,4.11-5,3.06-7.13A5.46,5.46,0,0,0,376.75,639.66Z" fill="#17c060"/><path d="M471.65,639.66l-.16.08a22.21,22.21,0,0,1-9.05,2.25c-12.9,0-15.54-9-15.54-22.53v-50h21.33c3.7,0,5.7-2.62,5.7-5.09s-2-5.1-5.7-5.1H446.9V539.83a5.11,5.11,0,0,0-5.32-5.11,5,5,0,0,0-5.21,5.11v19.46H422.88c-3.78,0-5.82,2.63-5.82,5.1s2,5.09,5.82,5.09h13.49v50c0,21.71,8.77,32.72,26.07,32.72A27.82,27.82,0,0,0,476,649c3.61-1.87,4.12-5,3.06-7.13A5.46,5.46,0,0,0,471.65,639.66Z" fill="#17c060"/><path d="M401,558.76a5.31,5.31,0,0,0-5.4,5.46v82.87a5.35,5.35,0,1,0,10.7,0v-83A5.18,5.18,0,0,0,401,558.76Z" fill="#17c060"/><circle cx="400.93" cy="542.96" r="7.1" transform="translate(-81.8 71.23) rotate(-9.22)" fill="#17c060"/><path d="M573.25,604.7c-.37-22.82-12.75-39.7-33.14-45.16a55.12,55.12,0,0,0-27,0c-18.77,5.21-32,22.19-32.93,42.22a49.18,49.18,0,0,0,10.72,34.15c7.82,10,21,15.9,36.11,16.09h.87c12.29,0,23.53-3.94,31-10.93,2.6-2.6,2.17-5.62.66-7.32a5.57,5.57,0,0,0-7.69-.5,40.73,40.73,0,0,1-25.3,8.21l-.78,0-1.21-.05h-.13c-.62,0-1.23-.1-1.83-.17l-.31,0c-.45,0-.9-.11-1.35-.19a35.14,35.14,0,0,1-21.62-11.81,34.51,34.51,0,0,1-7.74-16.39h0a37.13,37.13,0,0,1-.82-7.73,36.5,36.5,0,0,1,3.32-15.27,33.82,33.82,0,0,1,22.3-20,42.49,42.49,0,0,1,20.6-.17c13.44,3.63,22.38,13.76,24.94,27.7a36.75,36.75,0,0,1,.83,7.76c0,.75,0,1.58,0,2.5A5.22,5.22,0,0,0,573,609v0c.05-.18.1-.35.14-.53A20.14,20.14,0,0,0,573.25,604.7Z" fill="#17c060"/><path d="M511.16,608a4.25,4.25,0,0,0-4.2-4.29,4.12,4.12,0,0,0-3,1.34l-5.86,6.31,0,.06a3.68,3.68,0,0,0-.5,1.35,4.41,4.41,0,0,0-.14,1.06,4.25,4.25,0,0,0,4.2,4.29h.17a3.89,3.89,0,0,0,1.08-.19h0a3.29,3.29,0,0,1,1.3.27,2.11,2.11,0,0,1,.34.16,3.36,3.36,0,0,1,.89.71l.28.35.1.13a22.32,22.32,0,0,0,6.55,5.17,32.07,32.07,0,0,0,5.81,2.41,38.66,38.66,0,0,0,4.63,1.11,35.9,35.9,0,0,0,10.82,0,38.49,38.49,0,0,0,4.62-1.11,31.78,31.78,0,0,0,5.81-2.41,22.32,22.32,0,0,0,6.55-5.17l.11-.13.27-.35a3.71,3.71,0,0,1,.89-.71l.34-.17a3.68,3.68,0,0,1,1.34-.26,4,4,0,0,0,1.1.19h.16a4.24,4.24,0,0,0,4.19-4.29,4.31,4.31,0,0,0-.12-1,3.72,3.72,0,0,0-.52-1.39l0-.06-5.86-6.31a4.12,4.12,0,0,0-3-1.34,4.29,4.29,0,0,0-3.75,6.18,4,4,0,0,0,.76,1.1c0,.14-.08.25-.1.31a15.58,15.58,0,0,1-4.4,4.23,22.06,22.06,0,0,1-9.43,3.19,33,33,0,0,1-4.29.27,35.51,35.51,0,0,1-4.2-.25,22.26,22.26,0,0,1-9.53-3.21,15.58,15.58,0,0,1-4.4-4.23s-.05-.16-.09-.31a4.39,4.39,0,0,0,1.2-3Zm43.53,9.68Z" fill="#17c060"/><path d="M594.63,639.14l15.72-2.46V568.94l-15.72-2.45V555.36h32.68l1.35,14.11a36.58,36.58,0,0,1,13.06-11.7,37.68,37.68,0,0,1,17.88-4.16q16.88,0,26.13,9T695,590.33v46.35l15.71,2.46v11H660.28v-11L676,636.68v-46q0-12.54-5.45-17.79t-16.62-5.26a28.86,28.86,0,0,0-14.51,3.59A27.41,27.41,0,0,0,629.34,581v55.64l15.71,2.46v11H594.63Z" fill="#17c060"/><path d="M815.57,639.14l15.72-2.46V568.94l-15.72-2.45V555.36h34.7v81.32L866,639.14v11H815.57Zm34.7-108h-19V513.47h19Z" fill="#17c060"/><path d="M871.66,604.52q0-22.87,11-36.89t30.36-14a40.11,40.11,0,0,1,17.26,3.5,33.08,33.08,0,0,1,12.43,10.17l1.74-11.92h16V649q0,18.4-11.28,29t-32.1,10.56a78.31,78.31,0,0,1-16.29-1.88,67.68,67.68,0,0,1-15.42-5.13l4.91-13.41a60.21,60.21,0,0,0,12.53,4.21,62.64,62.64,0,0,0,14.08,1.67q12.72,0,18.65-6.49T941.45,649v-9a33.17,33.17,0,0,1-12.24,9A41.09,41.09,0,0,1,912.82,652q-19.19,0-30.17-12.62t-11-33Zm19,1.84q0,14.29,6.65,23T917.54,638q8.58,0,14.37-3.55a28,28,0,0,0,9.54-10V580.77a28,28,0,0,0-9.54-9.59,26.93,26.93,0,0,0-14.17-3.55q-13.61,0-20.34,10.34t-6.75,26.55Z" fill="#17c060"/><path d="M975.75,639.14l15.71-2.46V527.06l-15.71-2.46V513.47h34.7V568a37.14,37.14,0,0,1,13.2-10.6,39.44,39.44,0,0,1,17.35-3.77q16.77,0,26,9.11t9.25,28v45.92l15.72,2.46v11h-50.42v-11l15.71-2.46V590.59q0-11.75-5.54-17.35t-16.53-5.61a29.92,29.92,0,0,0-24.77,12.53v56.52l15.71,2.46v11H975.75Z" fill="#17c060"/><path d="M1192.33,606.36q0,20.5-10.85,33.08T1151.65,652a41.29,41.29,0,0,1-17.74-3.55A32.38,32.38,0,0,1,1121.38,638l-1.73,12.18h-16.39V527.06l-15.71-2.46V513.47h34.7v53.11a32.24,32.24,0,0,1,12.19-9.64,40.54,40.54,0,0,1,17-3.33q19.27,0,30.07,14t10.8,36.89Zm-19.09-1.84q0-16.38-6.55-26.64t-20-10.25q-8.78,0-14.8,3.86a28,28,0,0,0-9.59,10.34v41.88A26.41,26.41,0,0,0,1146.83,638q13.39,0,19.9-8.68t6.51-23Z" fill="#17c060"/><path d="M1202.43,601.89q0-21,12.53-34.65t34-13.63q21.59,0,34.17,13.58t12.58,34.7v1.93q0,21.21-12.53,34.7t-34,13.5q-21.69,0-34.22-13.54t-12.53-34.66Zm19,1.93q0,15.07,7,24.89t20.77,9.81q13.5,0,20.53-9.81t7-24.89v-1.93q0-14.89-7-24.8t-20.72-9.9q-13.7,0-20.63,9.9t-6.94,24.8Z" fill="#17c060"/><path d="M1300.26,566.49V555.36h32.68l1.83,13.76a34.18,34.18,0,0,1,10.94-11.39,27.21,27.21,0,0,1,14.89-4.12,34.55,34.55,0,0,1,4.58.31,27.87,27.87,0,0,1,3.62.65l-2.51,16-10.8-.53a23.35,23.35,0,0,0-12.62,3.2,21.24,21.24,0,0,0-7.91,9v54.42l15.71,2.46v11h-50.41v-11l15.71-2.46V568.94Z" fill="#17c060"/><path d="M1452.83,585.16h-14.26l-3.09-11.4a26.4,26.4,0,0,0-8.72-4.77,36.6,36.6,0,0,0-11.9-1.8q-10.12,0-15,4a12.19,12.19,0,0,0-4.92,9.73,10.46,10.46,0,0,0,4.34,8.85q4.34,3.24,17.64,5.78,19.75,3.87,29.4,10.48t9.64,17.74q0,12.62-11.23,20.42t-29.35,7.8a83.13,83.13,0,0,1-21.3-2.5,59,59,0,0,1-16.87-7.23l-.1-21.64h14.27l3.56,12.7a20.75,20.75,0,0,0,8.92,3.95,53.9,53.9,0,0,0,11.52,1.22q10.13,0,15.86-3.72t5.73-9.77a11.35,11.35,0,0,0-4.77-9.38q-4.77-3.67-18.08-6.4-19-3.76-28.62-10.25t-9.64-17.52q0-11.58,10.84-19.72t28.2-8.15a74.81,74.81,0,0,1,21.3,2.8,45.86,45.86,0,0,1,15.71,7.8Z" fill="#17c060"/><path d="M807.06,602.44c-.39-23.3-13-40.53-33.84-46.11a56.42,56.42,0,0,0-27.54,0C726.52,561.67,713,579,712.06,599.45a50.19,50.19,0,0,0,11,34.86c8,10.24,21.42,16.23,36.86,16.43h.89c12.54,0,24-4,31.66-11.16,2.66-2.65,2.21-5.73.68-7.47a5.69,5.69,0,0,0-7.85-.51A41.5,41.5,0,0,1,759.42,640c-.27,0-.53,0-.79,0-.42,0-.83,0-1.24-.05h-.14c-.62,0-1.25-.1-1.86-.17l-.32,0-1.37-.19a35.8,35.8,0,0,1-22.07-12.07,35,35,0,0,1-7.91-16.72h0a37.91,37.91,0,0,1-.84-7.89,37.44,37.44,0,0,1,3.39-15.6A34.53,34.53,0,0,1,749,566.75a43.38,43.38,0,0,1,21-.17c13.72,3.7,22.85,14,25.46,28.27a37.7,37.7,0,0,1,.85,7.93q0,1.14,0,2.55a5.33,5.33,0,0,0,10.46,1.49v0c0-.18.1-.36.14-.55A20.57,20.57,0,0,0,807.06,602.44Z" fill="#17c060" stroke="#17c060" stroke-miterlimit="10" stroke-width="4"/><path d="M743.66,605.8a4.33,4.33,0,0,0-4.28-4.37,4.21,4.21,0,0,0-3.11,1.37l-6,6.44,0,0a4.11,4.11,0,0,0-.51,1.39,4.57,4.57,0,0,0-.14,1.08,4.33,4.33,0,0,0,4.29,4.38h.17a4.61,4.61,0,0,0,1.11-.19h0a3.45,3.45,0,0,1,1.34.27l.34.17a3.71,3.71,0,0,1,.91.72l.28.37.11.13a22.69,22.69,0,0,0,6.68,5.27,32.51,32.51,0,0,0,5.94,2.47,39.7,39.7,0,0,0,4.72,1.13,36.48,36.48,0,0,0,11,0,39.7,39.7,0,0,0,4.72-1.13,32.51,32.51,0,0,0,5.94-2.47,22.69,22.69,0,0,0,6.68-5.27l.11-.13.28-.37a3.9,3.9,0,0,1,.91-.72l.35-.17a3.37,3.37,0,0,1,1.36-.26,4.61,4.61,0,0,0,1.12.19h.17a4.33,4.33,0,0,0,4.28-4.38,4.49,4.49,0,0,0-.13-1,4.24,4.24,0,0,0-.52-1.43s0,0-.05,0l-6-6.45a4.2,4.2,0,0,0-3.1-1.36,4.33,4.33,0,0,0-4.28,4.37,4.48,4.48,0,0,0,.44,1.94,4.33,4.33,0,0,0,.78,1.12c0,.14-.08.25-.1.32a16,16,0,0,1-4.49,4.32,22.61,22.61,0,0,1-9.63,3.25A34.19,34.19,0,0,1,761,617a34.77,34.77,0,0,1-4.28-.26A22.76,22.76,0,0,1,747,613.5a16,16,0,0,1-4.49-4.32c0-.06-.06-.17-.1-.32a4.33,4.33,0,0,0,.78-1.12A4.48,4.48,0,0,0,743.66,605.8Zm44.45,9.89Z" fill="#17c060"/><rect x="129.07" y="509.95" width="165.96" height="165.96" rx="36" ry="36" fill="#17c060"/><path d="M252.79,565.91V551.44H242.24v9.2l-30.19-15.1-37.82,18.92-2.92,1.45L154,574.59l4.72,9.44,12.63-6.32v27.14h81.48V577.71L265.42,584l4.72-9.44Zm-10.55,28.38H181.87V572.44l30.18-15.1,30.19,15.1Z" fill="#fff"/><path d="M234.06,622.06a38,38,0,0,1-10,5.29,40.55,40.55,0,0,1-12,2.41,33.89,33.89,0,0,1-13.11-2.61,38.06,38.06,0,0,1-9.62-5.91,40.84,40.84,0,0,1-8.19-9.15h0L172,617.45a50,50,0,0,0,10.45,11.84,48.67,48.67,0,0,0,12.33,7.57,44.32,44.32,0,0,0,17.23,3.45,49.77,49.77,0,0,0,15.5-3,48.4,48.4,0,0,0,12.79-6.78,44.39,44.39,0,0,0,11.72-13.09L243,612.09A33.91,33.91,0,0,1,234.06,622.06Z" fill="#fff"/></svg>